<svg width="617" height="411" viewBox="0 0 617 411" fill="none" xmlns="http://www.w3.org/2000/svg">
<path d="M210.158 226.223H76.0801L85.9932 130.789H221.207L210.158 226.223Z" fill="#F5F5F5"/>
<path d="M90.8221 210.21C90.6987 210.21 92.089 195.841 93.9153 178.152C95.7416 160.463 97.3211 146.094 97.4363 146.094C97.5515 146.094 96.1694 160.454 94.3431 178.152C92.5168 195.85 90.9372 210.218 90.8221 210.21Z" fill="#E0E0E0"/>
<path d="M115.23 149.341C112.994 149.553 110.746 149.624 108.501 149.555C106.255 149.624 104.008 149.553 101.771 149.341C104.008 149.124 106.255 149.053 108.501 149.127C110.746 149.053 112.994 149.124 115.23 149.341Z" fill="#E0E0E0"/>
<path d="M172.497 149.341C172.497 149.456 160.494 149.555 145.695 149.555C130.895 149.555 118.884 149.456 118.884 149.341C118.884 149.226 130.887 149.127 145.695 149.127C160.503 149.127 172.497 149.218 172.497 149.341Z" fill="#E0E0E0"/>
<path d="M113.643 183.249C111.407 183.465 109.159 183.537 106.914 183.462C104.669 183.537 102.421 183.465 100.185 183.249C102.421 183.037 104.669 182.966 106.914 183.035C109.159 182.966 111.407 183.037 113.643 183.249Z" fill="#E0E0E0"/>
<path d="M170.909 183.248C170.909 183.372 158.906 183.462 144.107 183.462C129.307 183.462 117.296 183.372 117.296 183.248C117.296 183.125 129.299 183.035 144.107 183.035C158.915 183.035 170.909 183.133 170.909 183.248Z" fill="#E0E0E0"/>
<path d="M152.645 198.924C152.645 199.047 140.643 199.138 125.843 199.138C111.043 199.138 99.0322 199.047 99.0322 198.924C99.0322 198.801 111.035 198.71 125.843 198.71C140.651 198.71 152.645 198.768 152.645 198.924Z" fill="#E0E0E0"/>
<path d="M121.162 158.917C121.162 159.032 116.926 159.131 111.694 159.131C106.461 159.131 102.225 159.032 102.225 158.917C102.225 158.802 106.47 158.695 111.694 158.695C116.917 158.695 121.162 158.794 121.162 158.917Z" fill="#E0E0E0"/>
<path d="M120.685 172.949C120.685 173.072 116.44 173.163 111.216 173.163C105.992 173.163 101.747 173.072 101.747 172.949C101.747 172.826 105.984 172.735 111.216 172.735C116.448 172.735 120.685 172.834 120.685 172.949Z" fill="#E0E0E0"/>
<path d="M136.695 193.014C136.695 193.129 132.45 193.227 127.226 193.227C122.002 193.227 117.757 193.129 117.757 193.014C117.757 192.899 121.994 192.8 127.226 192.8C132.458 192.8 136.695 192.89 136.695 193.014Z" fill="#E0E0E0"/>
<path d="M190.036 158.917C190.036 159.032 179.21 159.131 165.85 159.131C152.49 159.131 141.655 159.032 141.655 158.917C141.655 158.802 152.49 158.695 165.85 158.695C179.21 158.695 190.036 158.794 190.036 158.917Z" fill="#E0E0E0"/>
<path d="M175.121 173.763C175.121 173.886 164.295 173.976 150.934 173.976C137.574 173.976 126.748 173.886 126.748 173.763C126.748 173.639 137.574 173.549 150.934 173.549C164.295 173.549 175.121 173.647 175.121 173.763Z" fill="#E0E0E0"/>
<path d="M191.772 193.014C191.772 193.129 180.937 193.227 167.585 193.227C154.233 193.227 143.391 193.129 143.391 193.014C143.391 192.899 154.225 192.8 167.585 192.8C180.945 192.8 191.772 192.89 191.772 193.014Z" fill="#E0E0E0"/>
<path d="M147.603 210.21C147.603 210.325 136.768 210.424 123.408 210.424C110.048 210.424 99.2217 210.325 99.2217 210.21C99.2217 210.095 110.048 209.996 123.408 209.996C136.768 209.996 147.603 210.087 147.603 210.21Z" fill="#E0E0E0"/>
<path d="M201.101 210.21C201.101 210.325 190.266 210.424 176.914 210.424C163.562 210.424 152.72 210.325 152.72 210.21C152.72 210.095 163.546 209.996 176.914 209.996C190.283 209.996 201.101 210.087 201.101 210.21Z" fill="#E0E0E0"/>
<path d="M147.595 215.8C147.595 215.923 136.769 216.013 123.408 216.013C110.048 216.013 99.2139 215.923 99.2139 215.8C99.2139 215.676 110.048 215.586 123.408 215.586C136.769 215.586 147.595 215.685 147.595 215.8Z" fill="#E0E0E0"/>
<path d="M149.947 162.945C149.947 163.06 139.121 163.159 125.761 163.159C112.401 163.159 101.566 163.06 101.566 162.945C101.566 162.83 112.401 162.731 125.761 162.731C139.121 162.731 149.947 162.822 149.947 162.945Z" fill="#E0E0E0"/>
<path d="M137.048 158.967C134.98 159.178 132.899 159.25 130.821 159.18C128.74 159.25 126.656 159.178 124.585 158.967C126.656 158.75 128.74 158.679 130.821 158.753C132.899 158.679 134.98 158.75 137.048 158.967Z" fill="#E0E0E0"/>
<path d="M112.064 187.86C109.993 188.072 107.909 188.143 105.828 188.074C103.75 188.143 101.669 188.072 99.6006 187.86C101.669 187.648 103.75 187.577 105.828 187.646C107.909 187.577 109.993 187.648 112.064 187.86Z" fill="#E0E0E0"/>
<path d="M111.767 193.014C109.698 193.225 107.618 193.297 105.54 193.228C103.458 193.297 101.375 193.225 99.3037 193.014C101.375 192.797 103.458 192.726 105.54 192.8C107.618 192.726 109.699 192.797 111.767 193.014Z" fill="#E0E0E0"/>
<path d="M219.726 140.883C219.726 141.006 189.575 141.096 152.391 141.096C115.206 141.096 85.0391 141.006 85.0391 140.883C85.0391 140.759 115.19 140.669 152.391 140.669C189.592 140.669 219.726 140.768 219.726 140.883Z" fill="#E0E0E0"/>
<path d="M94.1292 137.932C95.0106 137.932 95.7251 137.218 95.7251 136.337C95.7251 135.456 95.0106 134.742 94.1292 134.742C93.2477 134.742 92.5332 135.456 92.5332 136.337C92.5332 137.218 93.2477 137.932 94.1292 137.932Z" fill="white"/>
<path d="M100.982 137.932C101.863 137.932 102.578 137.218 102.578 136.337C102.578 135.456 101.863 134.742 100.982 134.742C100.1 134.742 99.3857 135.456 99.3857 136.337C99.3857 137.218 100.1 137.932 100.982 137.932Z" fill="white"/>
<path d="M107.835 137.932C108.717 137.932 109.431 137.218 109.431 136.337C109.431 135.456 108.717 134.742 107.835 134.742C106.954 134.742 106.239 135.456 106.239 136.337C106.239 137.218 106.954 137.932 107.835 137.932Z" fill="white"/>
<path d="M558.303 178.506H424.225L434.138 83.0796H569.351L558.303 178.506Z" fill="#F5F5F5"/>
<path d="M438.967 162.493C438.851 162.493 440.234 148.124 442.06 130.435C443.886 112.746 445.466 98.377 445.581 98.4263C445.696 98.4756 444.314 112.787 442.488 130.484C440.661 148.182 439.082 162.501 438.967 162.493Z" fill="#E0E0E0"/>
<path d="M463.375 101.624C458.893 101.909 454.398 101.909 449.916 101.624C454.398 101.339 458.893 101.339 463.375 101.624Z" fill="#E0E0E0"/>
<path d="M520.649 101.624C520.649 101.739 508.646 101.838 493.838 101.838C479.03 101.838 467.027 101.739 467.027 101.624C467.027 101.509 479.03 101.41 493.838 101.41C508.646 101.41 520.649 101.509 520.649 101.624Z" fill="#E0E0E0"/>
<path d="M461.795 135.54C457.311 135.824 452.813 135.824 448.328 135.54C452.813 135.255 457.311 135.255 461.795 135.54Z" fill="#E0E0E0"/>
<path d="M519.103 135.54C519.103 135.655 507.1 135.753 492.292 135.753C477.484 135.753 465.481 135.655 465.481 135.54C465.481 135.425 477.484 135.326 492.292 135.326C507.1 135.326 519.103 135.416 519.103 135.54Z" fill="#E0E0E0"/>
<path d="M500.798 151.174C500.798 151.289 488.795 151.388 473.987 151.388C459.179 151.388 447.177 151.289 447.177 151.174C447.177 151.059 459.179 150.96 473.987 150.96C488.795 150.96 500.798 151.051 500.798 151.174Z" fill="#E0E0E0"/>
<path d="M469.315 111.2C469.315 111.315 465.07 111.414 459.846 111.414C454.622 111.414 450.377 111.315 450.377 111.2C450.377 111.085 454.614 110.97 459.871 110.97C465.127 110.97 469.315 111.077 469.315 111.2Z" fill="#E0E0E0"/>
<path d="M468.829 125.232C468.829 125.355 464.593 125.446 459.361 125.446C454.128 125.446 449.892 125.355 449.892 125.232C449.892 125.108 454.128 125.018 459.361 125.018C464.593 125.018 468.829 125.117 468.829 125.232Z" fill="#E0E0E0"/>
<path d="M484.838 145.297C484.838 145.412 480.601 145.51 475.369 145.51C470.137 145.51 465.9 145.412 465.9 145.297C465.9 145.182 470.137 145.083 475.369 145.083C480.601 145.083 484.838 145.182 484.838 145.297Z" fill="#E0E0E0"/>
<path d="M538.205 111.2C538.205 111.315 527.371 111.414 514.011 111.414C500.651 111.414 489.824 111.315 489.824 111.2C489.824 111.085 500.651 110.987 514.011 110.987C527.371 110.987 538.205 111.077 538.205 111.2Z" fill="#E0E0E0"/>
<path d="M523.274 126.046C523.274 126.169 512.439 126.259 499.079 126.259C485.719 126.259 474.893 126.169 474.893 126.046C474.893 125.922 485.719 125.832 499.079 125.832C512.439 125.832 523.274 125.93 523.274 126.046Z" fill="#E0E0E0"/>
<path d="M539.916 145.297C539.916 145.412 529.089 145.51 515.729 145.51C502.369 145.51 491.543 145.412 491.543 145.297C491.543 145.182 502.369 145.083 515.729 145.083C529.089 145.083 539.916 145.182 539.916 145.297Z" fill="#E0E0E0"/>
<path d="M495.747 162.493C495.747 162.608 484.913 162.707 471.561 162.707C458.209 162.707 447.366 162.608 447.366 162.493C447.366 162.378 458.193 162.279 471.561 162.279C484.929 162.279 495.747 162.37 495.747 162.493Z" fill="#E0E0E0"/>
<path d="M549.245 162.493C549.245 162.608 538.419 162.707 525.059 162.707C511.699 162.707 500.864 162.608 500.864 162.493C500.864 162.378 511.699 162.279 525.059 162.279C538.419 162.279 549.245 162.37 549.245 162.493Z" fill="#E0E0E0"/>
<path d="M495.739 168.083C495.739 168.206 484.913 168.296 471.553 168.296C458.193 168.296 447.366 168.206 447.366 168.083C447.366 167.959 458.193 167.869 471.553 167.869C484.913 167.869 495.739 167.968 495.739 168.083Z" fill="#E0E0E0"/>
<path d="M498.1 115.228C498.1 115.343 487.265 115.442 473.905 115.442C460.545 115.442 449.719 115.343 449.719 115.228C449.719 115.113 460.545 115.014 473.905 115.014C487.265 115.014 498.1 115.08 498.1 115.228Z" fill="#E0E0E0"/>
<path d="M485.192 111.25C481.046 111.535 476.884 111.535 472.737 111.25C476.884 110.965 481.046 110.965 485.192 111.25Z" fill="#E0E0E0"/>
<path d="M460.208 140.143C456.058 140.428 451.894 140.428 447.744 140.143C451.894 139.858 456.058 139.858 460.208 140.143Z" fill="#E0E0E0"/>
<path d="M459.911 145.297C455.764 145.582 451.603 145.582 447.456 145.297C451.603 145.012 455.764 145.012 459.911 145.297Z" fill="#E0E0E0"/>
<path d="M567.878 93.1655C567.878 93.2888 537.719 93.3792 500.535 93.3792C463.35 93.3792 433.191 93.2888 433.191 93.1655C433.191 93.0422 463.334 92.9518 500.535 92.9518C537.736 92.9518 567.878 93.0504 567.878 93.1655Z" fill="#E0E0E0"/>
<path d="M442.274 90.2145C443.155 90.2145 443.87 89.5005 443.87 88.6198C443.87 87.7391 443.155 87.0251 442.274 87.0251C441.392 87.0251 440.678 87.7391 440.678 88.6198C440.678 89.5005 441.392 90.2145 442.274 90.2145Z" fill="white"/>
<path d="M449.126 90.2145C450.008 90.2145 450.722 89.5005 450.722 88.6198C450.722 87.7391 450.008 87.0251 449.126 87.0251C448.245 87.0251 447.53 87.7391 447.53 88.6198C447.53 89.5005 448.245 90.2145 449.126 90.2145Z" fill="white"/>
<path d="M455.98 90.2145C456.861 90.2145 457.576 89.5005 457.576 88.6198C457.576 87.7391 456.861 87.0251 455.98 87.0251C455.098 87.0251 454.384 87.7391 454.384 88.6198C454.384 89.5005 455.098 90.2145 455.98 90.2145Z" fill="white"/>
<path d="M277.091 116.198H193.582L199.752 56.7592H283.968L277.091 116.198Z" fill="#EBEBEB"/>
<path d="M202.763 106.219C202.648 106.219 203.47 97.2673 204.605 86.2525C205.741 75.2377 206.761 66.3108 206.884 66.319C207.008 66.3272 206.177 75.2788 205.033 86.2936C203.89 97.3084 202.878 106.235 202.763 106.219Z" fill="#E0E0E0"/>
<path d="M218.007 68.3082C215.22 68.5932 212.411 68.5932 209.624 68.3082C212.411 68.0232 215.22 68.0232 218.007 68.3082Z" fill="#E0E0E0"/>
<path d="M253.637 68.3082C253.637 68.4315 246.159 68.5219 236.936 68.5219C227.714 68.5219 220.236 68.4315 220.236 68.3082C220.236 68.1849 227.714 68.0945 236.936 68.0945C246.159 68.0945 253.637 68.226 253.637 68.3082Z" fill="#E0E0E0"/>
<path d="M216.979 89.4337C214.192 89.7187 211.383 89.7187 208.596 89.4337C211.383 89.1487 214.192 89.1487 216.979 89.4337Z" fill="#E0E0E0"/>
<path d="M252.649 89.4337C252.649 89.5488 245.171 89.6474 235.949 89.6474C226.727 89.6474 219.249 89.5488 219.249 89.4337C219.249 89.3186 226.727 89.22 235.949 89.22C245.171 89.22 252.649 89.3186 252.649 89.4337Z" fill="#E0E0E0"/>
<path d="M241.272 99.1661C241.272 99.2894 233.794 99.3798 224.572 99.3798C215.35 99.3798 207.88 99.2894 207.88 99.1661C207.88 99.0428 215.35 98.9524 224.572 98.9524C233.794 98.9524 241.272 99.051 241.272 99.1661Z" fill="#E0E0E0"/>
<path d="M221.659 74.276C219.7 74.4875 217.729 74.5589 215.76 74.4897C213.794 74.5591 211.826 74.4876 209.87 74.276C211.826 74.0594 213.794 73.9879 215.76 74.0622C217.729 73.9881 219.701 74.0596 221.659 74.276Z" fill="#E0E0E0"/>
<path d="M221.363 83.0221C219.405 83.2385 217.434 83.31 215.465 83.2358C213.496 83.31 211.525 83.2385 209.566 83.0221C211.525 82.8106 213.496 82.7392 215.465 82.8084C217.434 82.7392 219.405 82.8106 221.363 83.0221Z" fill="#E0E0E0"/>
<path d="M231.334 95.5082C229.376 95.7246 227.404 95.796 225.436 95.7219C223.467 95.796 221.495 95.7246 219.537 95.5082C221.496 95.2967 223.467 95.2253 225.436 95.2945C227.404 95.2253 229.376 95.2967 231.334 95.5082Z" fill="#E0E0E0"/>
<path d="M264.57 74.276C264.57 74.3911 257.824 74.4897 249.507 74.4897C241.189 74.4897 234.46 74.3911 234.46 74.276C234.46 74.1609 241.206 74.0623 249.531 74.0623C257.857 74.0623 264.57 74.1527 264.57 74.276Z" fill="#E0E0E0"/>
<path d="M255.265 83.5234C255.265 83.6385 248.519 83.7371 240.202 83.7371C231.885 83.7371 225.139 83.6385 225.139 83.5234C225.139 83.4083 231.885 83.3097 240.202 83.3097C248.519 83.3097 255.265 83.4083 255.265 83.5234Z" fill="#E0E0E0"/>
<path d="M265.639 95.5083C265.639 95.6316 258.893 95.722 250.576 95.722C242.259 95.722 235.505 95.6316 235.505 95.5083C235.505 95.385 242.251 95.2946 250.576 95.2946C258.902 95.2946 265.639 95.3932 265.639 95.5083Z" fill="#E0E0E0"/>
<path d="M238.129 106.219C238.129 106.342 231.384 106.433 223.058 106.433C214.733 106.433 207.995 106.342 207.995 106.219C207.995 106.096 214.741 106.005 223.058 106.005C231.375 106.005 238.129 106.104 238.129 106.219Z" fill="#E0E0E0"/>
<path d="M271.48 106.219C271.48 106.342 264.734 106.433 256.417 106.433C248.1 106.433 241.346 106.342 241.346 106.219C241.346 106.096 248.092 106.005 256.417 106.005C264.742 106.005 271.48 106.104 271.48 106.219Z" fill="#E0E0E0"/>
<path d="M238.121 109.704C238.121 109.828 231.375 109.918 223.058 109.918C214.741 109.918 207.995 109.828 207.995 109.704C207.995 109.581 214.733 109.49 223.058 109.49C231.384 109.49 238.121 109.589 238.121 109.704Z" fill="#E0E0E0"/>
<path d="M239.585 76.7831C239.585 76.9064 232.839 76.9968 224.522 76.9968C216.205 76.9968 209.459 76.9064 209.459 76.7831C209.459 76.6598 216.205 76.5693 224.522 76.5693C232.839 76.5693 239.585 76.668 239.585 76.7831Z" fill="#E0E0E0"/>
<path d="M231.556 74.3088C228.975 74.5936 226.371 74.5936 223.79 74.3088C226.371 74.024 228.975 74.024 231.556 74.3088Z" fill="#E0E0E0"/>
<path d="M215.991 92.3025C213.413 92.5875 210.811 92.5875 208.233 92.3025C210.811 92.0175 213.413 92.0175 215.991 92.3025Z" fill="#E0E0E0"/>
<path d="M215.81 95.5083C213.229 95.793 210.625 95.793 208.044 95.5083C210.625 95.2235 213.229 95.2235 215.81 95.5083Z" fill="#E0E0E0"/>
<path d="M283.047 63.0475C283.047 63.1625 264.274 63.2612 241.091 63.2612C217.908 63.2612 199.135 63.1625 199.135 63.0475C199.135 62.9324 217.908 62.8337 241.091 62.8337C264.274 62.8337 283.047 62.9242 283.047 63.0475Z" fill="#E0E0E0"/>
<path d="M205.815 60.2115C205.808 60.4077 205.743 60.5976 205.629 60.7573C205.515 60.9169 205.356 61.0392 205.172 61.1086C204.988 61.1781 204.788 61.1916 204.596 61.1476C204.405 61.1035 204.231 61.0039 204.096 60.8611C203.961 60.7183 203.871 60.5389 203.838 60.3453C203.805 60.1518 203.83 59.9528 203.91 59.7735C203.99 59.5941 204.122 59.4425 204.288 59.3376C204.454 59.2327 204.647 59.1792 204.844 59.184C204.975 59.1872 205.105 59.2164 205.225 59.2698C205.345 59.3233 205.453 59.4 205.543 59.4956C205.634 59.5911 205.704 59.7036 205.751 59.8264C205.797 59.9493 205.819 60.0802 205.815 60.2115Z" fill="white"/>
<path d="M210.084 60.2116C210.078 60.4068 210.014 60.5957 209.901 60.7549C209.787 60.9141 209.63 61.0365 209.447 61.1067C209.265 61.177 209.066 61.192 208.875 61.15C208.684 61.108 208.51 61.0108 208.374 60.8705C208.238 60.7302 208.146 60.553 208.111 60.361C208.075 60.169 208.096 59.9707 208.173 59.7909C208.249 59.611 208.376 59.4576 208.539 59.3497C208.702 59.2418 208.893 59.1842 209.089 59.1841C209.222 59.184 209.354 59.2108 209.477 59.2628C209.6 59.3148 209.712 59.3911 209.804 59.4869C209.897 59.5828 209.97 59.6964 210.018 59.8209C210.066 59.9453 210.088 60.0782 210.084 60.2116Z" fill="white"/>
<path d="M214.354 60.2116C214.347 60.4068 214.283 60.5957 214.17 60.7549C214.057 60.9141 213.899 61.0365 213.717 61.1067C213.534 61.177 213.335 61.192 213.145 61.15C212.954 61.108 212.779 61.0108 212.643 60.8705C212.508 60.7302 212.416 60.553 212.38 60.361C212.344 60.169 212.366 59.9707 212.442 59.7909C212.518 59.611 212.646 59.4576 212.809 59.3497C212.972 59.2418 213.163 59.1842 213.358 59.1841C213.492 59.184 213.624 59.2108 213.747 59.2628C213.87 59.3148 213.981 59.3911 214.074 59.4869C214.167 59.5828 214.239 59.6964 214.287 59.8209C214.336 59.9453 214.358 60.0782 214.354 60.2116Z" fill="white"/>
<path d="M504.048 219.926H461.993V355.934H504.048V219.926Z" fill="#EBEBEB"/>
<path d="M539.752 219.951H504.048V355.91H539.752V219.951Z" fill="#E0E0E0"/>
<path d="M499.013 225.434H465.275V254.73H499.013V225.434Z" fill="#E0E0E0"/>
<path d="M499.013 258.051H465.275V287.347H499.013V258.051Z" fill="#E0E0E0"/>
<path d="M499.013 290.667H465.275V319.964H499.013V290.667Z" fill="#E0E0E0"/>
<path d="M499.013 323.293H465.275V352.589H499.013V323.293Z" fill="#E0E0E0"/>
<path d="M482.149 230.842C482.15 231.075 482.083 231.303 481.954 231.498C481.826 231.692 481.643 231.844 481.428 231.934C481.213 232.024 480.977 232.049 480.748 232.004C480.519 231.96 480.309 231.849 480.143 231.685C479.978 231.521 479.865 231.311 479.819 231.083C479.773 230.855 479.796 230.618 479.885 230.403C479.973 230.187 480.124 230.003 480.318 229.874C480.511 229.744 480.739 229.675 480.972 229.675C481.283 229.675 481.581 229.798 481.801 230.016C482.022 230.235 482.147 230.532 482.149 230.842Z" fill="#FAFAFA"/>
<path d="M482.149 263.862C482.15 264.095 482.083 264.323 481.954 264.517C481.826 264.712 481.643 264.864 481.428 264.954C481.213 265.044 480.977 265.069 480.748 265.024C480.519 264.98 480.309 264.868 480.143 264.704C479.978 264.54 479.865 264.331 479.819 264.103C479.773 263.874 479.796 263.638 479.885 263.422C479.973 263.207 480.124 263.023 480.318 262.894C480.511 262.764 480.739 262.695 480.972 262.695C481.283 262.695 481.581 262.818 481.801 263.036C482.022 263.255 482.147 263.552 482.149 263.862Z" fill="#FAFAFA"/>
<path d="M482.149 296.841C482.149 297.073 482.08 297.3 481.95 297.494C481.821 297.687 481.637 297.838 481.423 297.927C481.208 298.016 480.971 298.039 480.743 297.994C480.515 297.948 480.305 297.836 480.14 297.672C479.976 297.508 479.864 297.298 479.819 297.07C479.773 296.842 479.796 296.606 479.885 296.391C479.974 296.176 480.125 295.993 480.319 295.863C480.512 295.734 480.74 295.665 480.972 295.665C481.284 295.665 481.584 295.789 481.804 296.01C482.025 296.23 482.149 296.529 482.149 296.841Z" fill="#FAFAFA"/>
<path d="M482.149 329.836C482.15 330.069 482.083 330.297 481.954 330.491C481.826 330.685 481.643 330.837 481.428 330.928C481.213 331.018 480.977 331.042 480.748 330.998C480.519 330.953 480.309 330.842 480.143 330.678C479.978 330.514 479.865 330.305 479.819 330.076C479.773 329.848 479.796 329.611 479.885 329.396C479.973 329.181 480.124 328.997 480.318 328.867C480.511 328.738 480.739 328.668 480.972 328.668C481.283 328.668 481.581 328.791 481.801 329.01C482.022 329.229 482.147 329.525 482.149 329.836Z" fill="#FAFAFA"/>
<path d="M466.855 355.934H461.993V383.217H466.855V355.934Z" fill="#E0E0E0"/>
<path d="M503.875 355.934H499.013V383.217H503.875V355.934Z" fill="#E0E0E0"/>
<path d="M539.225 355.934H534.363V383.217H539.225V355.934Z" fill="#E0E0E0"/>
<path d="M108.707 375.514C107.465 374.454 104.684 371.084 106.823 367.163C107.646 365.732 109.291 365.017 110.797 364.384C112.349 363.861 113.813 363.107 115.14 362.149C117.502 360.151 118.151 356.83 119.715 354.167C121.516 351.117 124.873 348.824 128.418 348.988C132.474 349.169 135.822 352.465 137.394 356.222C138.965 359.978 138.981 364.154 139.039 368.215C139.039 370.459 138.957 372.991 137.295 374.511C135.773 375.909 133.469 375.925 131.396 375.859L109.184 375.185" fill="#F5F5F5"/>
<path d="M151.132 314.826H92.7969L103.311 377.142C103.524 378.439 104.101 379.648 104.974 380.63C105.848 381.613 106.983 382.327 108.247 382.69L108.452 382.748C108.623 382.801 108.796 382.844 108.971 382.88C109.387 382.975 109.811 383.033 110.237 383.052V383.11L110.525 383.069H136.522C137.002 383.066 137.482 383.016 137.953 382.921C139.468 382.692 140.866 381.971 141.932 380.871C142.998 379.77 143.672 378.35 143.852 376.83L148.903 333.888L149.133 332.179L151.132 315.171V314.826ZM140.125 354.578H134.144L134.745 336.494H141.68L140.125 354.578ZM142.264 336.494H148.022L145.884 354.578H140.676L142.264 336.494ZM125.161 374.627L124.799 358.918H133.42L132.894 374.627H125.161ZM115.84 358.918H124.223L124.593 374.627H117.066L115.84 358.918ZM116.49 374.627H109.464C108.798 370.385 107.926 364.87 106.996 358.918H115.272L116.49 374.627ZM115.502 354.578L114.087 336.494H123.696L124.116 354.578H115.502ZM124.7 354.578L124.28 336.494H134.152L133.544 354.578H124.7ZM124.173 332.154L123.787 315.402H134.868L134.309 332.154H124.173ZM123.598 332.154H113.726L112.417 315.402H123.186L123.598 332.154ZM113.166 332.154H102.751C102.381 329.844 102.027 327.649 101.715 325.685C100.629 318.912 100.217 316.363 99.9952 315.402H111.883L113.166 332.154ZM113.512 336.494L114.918 354.578H106.305C106.017 352.745 105.721 350.887 105.425 349.03C104.75 344.763 104.076 340.489 103.442 336.494H113.512ZM105.721 354.578H100.086L97.0418 336.494H102.833L105.721 354.578ZM106.404 358.918C107.226 364.352 108.107 369.711 108.872 374.627H103.459L100.81 358.918H106.404ZM133.47 374.627L133.996 358.918H139.755L138.406 374.627H133.47ZM134.917 332.179L135.477 315.426H143.514L142.083 332.179H134.917ZM99.4687 315.426C99.699 316.643 100.76 323.235 102.192 332.179H96.3343L93.5044 315.426H99.4687ZM143.523 374.61H139.031L140.38 358.902H145.39L143.523 374.61ZM148.533 332.137H142.659L144.098 315.385H150.507L148.533 332.137Z" fill="#E0E0E0"/>
<path d="M535.556 383.208C535.556 383.331 429.087 383.422 297.805 383.422C166.524 383.422 60.0547 383.331 60.0547 383.208C60.0547 383.085 166.5 382.994 297.846 382.994C429.193 382.994 535.556 383.093 535.556 383.208Z" fill="#263238"/>
<path d="M325.924 205.401H234.69L241.436 140.463H333.443L325.924 205.401Z" fill="#263238"/>
<path d="M321.284 205.401H230.042L236.788 140.463H328.795L321.284 205.401Z" fill="#455A64"/>
<path d="M317.895 202.459H233.234L239.495 142.206H324.871L317.895 202.459Z" fill="#F5F5F5"/>
<path d="M242.415 192.414C242.292 192.414 243.131 183.331 244.291 172.168C245.451 161.005 246.471 151.947 246.586 151.963C246.701 151.98 245.871 161.005 244.711 172.209C243.551 183.413 242.531 192.422 242.415 192.414Z" fill="#263238"/>
<path d="M257.823 153.977C254.998 154.262 252.151 154.262 249.325 153.977C252.151 153.692 254.998 153.692 257.823 153.977Z" fill="#263238"/>
<path d="M293.987 153.977C293.987 154.092 286.411 154.191 277.057 154.191C267.703 154.191 260.135 154.092 260.135 153.977C260.135 153.862 267.712 153.763 277.057 153.763C286.403 153.763 293.987 153.862 293.987 153.977Z" fill="#8B7F60"/>
<path d="M256.828 175.39C253.999 175.675 251.15 175.675 248.321 175.39C251.15 175.105 253.999 175.105 256.828 175.39Z" fill="#263238"/>
<path d="M292.985 175.39C292.985 175.514 285.408 175.604 276.062 175.604C266.717 175.604 259.132 175.514 259.132 175.39C259.132 175.267 266.709 175.177 276.062 175.177C285.416 175.177 292.985 175.275 292.985 175.39Z" fill="#8B7F60"/>
<path d="M281.45 185.262C281.45 185.377 273.874 185.476 264.528 185.476C255.183 185.476 247.598 185.377 247.598 185.262C247.598 185.147 255.174 185.049 264.528 185.049C273.882 185.049 281.45 185.147 281.45 185.262Z" fill="#8B7F60"/>
<path d="M261.608 160.019C259.623 160.24 257.624 160.315 255.627 160.241C253.631 160.315 251.632 160.24 249.646 160.019C251.633 159.807 253.631 159.736 255.627 159.805C257.623 159.736 259.622 159.807 261.608 160.019Z" fill="#8B7F60"/>
<path d="M261.27 168.888C259.284 169.1 257.286 169.171 255.289 169.102C253.293 169.171 251.295 169.1 249.309 168.888C251.294 168.672 253.293 168.601 255.289 168.674C257.286 168.601 259.284 168.672 261.27 168.888Z" fill="#8B7F60"/>
<path d="M271.381 181.555C269.394 181.766 267.396 181.838 265.4 181.769C263.404 181.838 261.405 181.767 259.419 181.555C261.405 181.339 263.404 181.267 265.4 181.341C267.396 181.267 269.395 181.339 271.381 181.555Z" fill="#8B7F60"/>
<path d="M305.069 160.019C305.069 160.142 298.233 160.241 289.8 160.241C281.368 160.241 274.523 160.142 274.523 160.019C274.523 159.895 281.36 159.805 289.8 159.805C298.241 159.805 305.069 159.904 305.069 160.019Z" fill="#263238"/>
<path d="M295.641 169.398C295.641 169.521 288.805 169.612 280.373 169.612C271.94 169.612 265.096 169.521 265.096 169.398C265.096 169.274 271.932 169.184 280.373 169.184C288.813 169.184 295.641 169.283 295.641 169.398Z" fill="#263238"/>
<path d="M306.155 181.555C306.155 181.67 299.318 181.769 290.886 181.769C282.454 181.769 275.593 181.662 275.593 181.555C275.593 181.448 282.429 181.341 290.87 181.341C299.31 181.341 306.155 181.432 306.155 181.555Z" fill="#263238"/>
<path d="M278.267 192.414C278.267 192.529 271.422 192.627 262.99 192.627C254.557 192.627 247.713 192.529 247.713 192.414C247.713 192.299 254.557 192.2 262.99 192.2C271.422 192.2 278.267 192.29 278.267 192.414Z" fill="#263238"/>
<path d="M312.046 192.414C312.046 192.529 305.209 192.627 296.777 192.627C288.345 192.627 281.5 192.529 281.5 192.414C281.5 192.299 288.336 192.2 296.777 192.2C305.217 192.2 312.046 192.29 312.046 192.414Z" fill="#263238"/>
<path d="M278.259 195.94C278.259 196.063 271.422 196.154 262.99 196.154C254.557 196.154 247.713 196.063 247.713 195.94C247.713 195.817 254.549 195.726 262.99 195.726C271.43 195.726 278.259 195.825 278.259 195.94Z" fill="#263238"/>
<path d="M279.748 162.567C279.748 162.682 272.911 162.781 264.479 162.781C256.047 162.781 249.202 162.682 249.202 162.567C249.202 162.452 256.038 162.353 264.479 162.353C272.92 162.353 279.748 162.452 279.748 162.567Z" fill="#263238"/>
<path d="M271.603 160.06C268.987 160.345 266.347 160.345 263.73 160.06C266.346 159.764 268.987 159.764 271.603 160.06Z" fill="#455A64"/>
<path d="M255.849 178.3C253.235 178.585 250.598 178.585 247.984 178.3C250.598 178.015 253.235 178.015 255.849 178.3Z" fill="#455A64"/>
<path d="M255.635 181.555C253.021 181.84 250.384 181.84 247.771 181.555C250.384 181.27 253.021 181.27 255.635 181.555Z" fill="#455A64"/>
<path d="M323.81 148.642C323.81 148.757 304.773 148.856 281.286 148.856C257.799 148.856 238.763 148.757 238.763 148.642C238.763 148.527 257.799 148.42 281.286 148.42C304.773 148.42 323.81 148.519 323.81 148.642Z" fill="#263238"/>
<path d="M245.508 145.765C245.508 145.966 245.449 146.161 245.337 146.328C245.225 146.494 245.067 146.624 244.882 146.7C244.696 146.776 244.492 146.796 244.296 146.756C244.099 146.717 243.919 146.619 243.778 146.477C243.637 146.335 243.541 146.154 243.503 145.957C243.465 145.761 243.486 145.557 243.564 145.373C243.642 145.188 243.773 145.031 243.94 144.921C244.108 144.81 244.304 144.753 244.504 144.754C244.637 144.754 244.768 144.78 244.89 144.831C245.013 144.882 245.124 144.957 245.217 145.051C245.31 145.145 245.384 145.256 245.434 145.379C245.484 145.502 245.509 145.633 245.508 145.765Z" fill="white"/>
<path d="M249.835 145.765C249.835 145.966 249.776 146.161 249.664 146.328C249.553 146.494 249.394 146.624 249.209 146.7C249.023 146.776 248.819 146.796 248.623 146.756C248.426 146.717 248.246 146.619 248.105 146.477C247.964 146.335 247.868 146.154 247.83 145.957C247.792 145.761 247.813 145.557 247.891 145.373C247.969 145.188 248.1 145.031 248.267 144.921C248.435 144.81 248.631 144.753 248.832 144.754C248.964 144.754 249.095 144.78 249.218 144.831C249.34 144.882 249.451 144.957 249.544 145.051C249.638 145.145 249.711 145.256 249.761 145.379C249.811 145.502 249.836 145.633 249.835 145.765Z" fill="white"/>
<path d="M254.203 145.765C254.203 145.966 254.144 146.161 254.032 146.328C253.921 146.494 253.762 146.624 253.577 146.7C253.391 146.776 253.188 146.796 252.991 146.756C252.795 146.717 252.614 146.619 252.473 146.477C252.332 146.335 252.236 146.154 252.198 145.957C252.16 145.761 252.181 145.557 252.259 145.373C252.337 145.188 252.468 145.031 252.635 144.921C252.803 144.81 252.999 144.753 253.2 144.754C253.332 144.754 253.463 144.78 253.586 144.831C253.708 144.882 253.819 144.957 253.912 145.051C254.006 145.145 254.079 145.256 254.129 145.379C254.179 145.502 254.205 145.633 254.203 145.765Z" fill="white"/>
<path d="M445.778 207.374H349.806L356.897 139.058H453.692L445.778 207.374Z" fill="#263238"/>
<path d="M440.891 207.374H344.919L352.019 139.058H448.805L440.891 207.374Z" fill="#455A64"/>
<path d="M437.338 204.275H348.284L354.866 140.891H444.676L437.338 204.275Z" fill="#EBEBEB"/>
<path d="M357.983 192.751C357.868 192.751 358.756 183.199 359.965 171.453C361.175 159.706 362.261 150.188 362.376 150.204C362.491 150.221 361.602 159.748 360.393 171.502C359.184 183.257 358.098 192.759 357.983 192.751Z" fill="#263238"/>
<path d="M374.198 152.325C371.224 152.61 368.23 152.61 365.256 152.325C368.229 152.029 371.225 152.029 374.198 152.325Z" fill="#263238"/>
<path d="M412.238 152.325C412.238 152.44 404.267 152.538 394.428 152.538C384.588 152.538 376.625 152.44 376.625 152.325C376.625 152.21 384.597 152.103 394.428 152.103C404.258 152.103 412.238 152.201 412.238 152.325Z" fill="#8B7F60"/>
<path d="M373.145 174.847C370.171 175.132 367.176 175.132 364.202 174.847C367.176 174.563 370.171 174.563 373.145 174.847Z" fill="#263238"/>
<path d="M411.185 174.848C411.185 174.963 403.205 175.061 393.374 175.061C383.543 175.061 375.571 174.963 375.571 174.848C375.571 174.732 383.543 174.634 393.374 174.634C403.205 174.634 411.185 174.732 411.185 174.848Z" fill="#8B7F60"/>
<path d="M399.051 185.229C399.051 185.353 391.079 185.443 381.248 185.443C371.417 185.443 363.438 185.353 363.438 185.229C363.438 185.106 371.409 185.016 381.248 185.016C391.087 185.016 399.051 185.114 399.051 185.229Z" fill="#8B7F60"/>
<path d="M378.138 158.646C373.95 158.931 369.748 158.931 365.56 158.646C369.748 158.361 373.95 158.361 378.138 158.646Z" fill="#8B7F60"/>
<path d="M377.818 168C373.63 168.296 369.427 168.296 365.239 168C369.427 167.715 373.63 167.715 377.818 168Z" fill="#8B7F60"/>
<path d="M388.455 181.333C384.267 181.618 380.064 181.618 375.876 181.333C380.064 181.048 384.267 181.048 388.455 181.333Z" fill="#8B7F60"/>
<path d="M423.895 158.646C423.895 158.769 416.705 158.86 407.828 158.86C398.952 158.86 391.762 158.769 391.762 158.646C391.762 158.523 398.952 158.432 407.828 158.432C416.705 158.432 423.895 158.564 423.895 158.646Z" fill="#263238"/>
<path d="M413.982 168.51C413.982 168.633 406.784 168.724 397.915 168.724C389.047 168.724 381.849 168.633 381.849 168.51C381.849 168.387 389.039 168.296 397.915 168.296C406.792 168.296 413.982 168.428 413.982 168.51Z" fill="#263238"/>
<path d="M425.039 181.333C425.039 181.448 417.84 181.547 408.972 181.547C400.104 181.547 392.905 181.448 392.905 181.333C392.905 181.218 400.095 181.119 408.972 181.119C417.849 181.119 425.039 181.21 425.039 181.333Z" fill="#263238"/>
<path d="M395.703 192.751C395.703 192.866 388.513 192.965 379.636 192.965C370.759 192.965 363.569 192.866 363.569 192.751C363.569 192.636 370.768 192.537 379.636 192.537C388.504 192.537 395.703 192.636 395.703 192.751Z" fill="#263238"/>
<path d="M431.233 192.751C431.233 192.866 424.035 192.965 415.166 192.965C406.298 192.965 399.1 192.866 399.1 192.751C399.1 192.636 406.29 192.537 415.166 192.537C424.043 192.537 431.233 192.636 431.233 192.751Z" fill="#263238"/>
<path d="M395.703 196.458C395.703 196.573 388.513 196.672 379.636 196.672C370.759 196.672 363.569 196.573 363.569 196.458C363.569 196.343 370.759 196.244 379.636 196.244C388.513 196.244 395.703 196.351 395.703 196.458Z" fill="#263238"/>
<path d="M397.257 161.359C397.257 161.474 390.067 161.572 381.191 161.572C372.314 161.572 365.124 161.474 365.124 161.359C365.124 161.243 372.314 161.145 381.191 161.145C390.067 161.145 397.257 161.243 397.257 161.359Z" fill="#263238"/>
<path d="M388.685 158.712C385.934 158.997 383.16 158.997 380.409 158.712C383.16 158.427 385.934 158.427 388.685 158.712Z" fill="#455A64"/>
<path d="M372.091 177.905C369.34 178.19 366.567 178.19 363.815 177.905C366.567 177.62 369.34 177.62 372.091 177.905Z" fill="#455A64"/>
<path d="M371.894 181.333C369.143 181.618 366.369 181.618 363.618 181.333C366.369 181.048 369.143 181.048 371.894 181.333Z" fill="#455A64"/>
<path d="M443.606 146.702C443.606 146.826 423.582 146.916 398.878 146.916C374.173 146.916 354.149 146.826 354.149 146.702C354.149 146.579 374.173 146.489 398.878 146.489C423.582 146.489 443.606 146.587 443.606 146.702Z" fill="#263238"/>
<path d="M361.241 143.686C361.241 143.895 361.178 144.1 361.062 144.275C360.945 144.449 360.779 144.585 360.586 144.665C360.392 144.746 360.178 144.767 359.972 144.726C359.767 144.685 359.577 144.584 359.429 144.435C359.281 144.287 359.18 144.098 359.139 143.893C359.098 143.687 359.119 143.474 359.199 143.28C359.279 143.086 359.415 142.921 359.59 142.804C359.764 142.687 359.97 142.625 360.179 142.625C360.319 142.624 360.458 142.651 360.587 142.704C360.716 142.757 360.833 142.835 360.932 142.933C361.031 143.032 361.109 143.149 361.162 143.279C361.215 143.408 361.242 143.546 361.241 143.686Z" fill="white"/>
<path d="M365.79 143.686C365.79 143.895 365.728 144.1 365.612 144.275C365.495 144.449 365.329 144.585 365.135 144.665C364.941 144.746 364.728 144.767 364.522 144.726C364.316 144.685 364.127 144.584 363.979 144.435C363.83 144.287 363.729 144.098 363.688 143.893C363.647 143.687 363.668 143.474 363.749 143.28C363.829 143.086 363.965 142.921 364.14 142.804C364.314 142.687 364.519 142.625 364.729 142.625C364.869 142.624 365.007 142.651 365.137 142.704C365.266 142.757 365.383 142.835 365.482 142.933C365.581 143.032 365.659 143.149 365.712 143.279C365.765 143.408 365.792 143.546 365.79 143.686Z" fill="white"/>
<path d="M370.348 143.686C370.348 143.895 370.286 144.1 370.169 144.275C370.053 144.449 369.887 144.585 369.693 144.665C369.499 144.746 369.286 144.767 369.08 144.726C368.874 144.685 368.685 144.584 368.536 144.435C368.388 144.287 368.287 144.098 368.246 143.893C368.205 143.687 368.226 143.474 368.306 143.28C368.387 143.086 368.523 142.921 368.697 142.804C368.872 142.687 369.077 142.625 369.287 142.625C369.427 142.624 369.565 142.651 369.694 142.704C369.823 142.757 369.941 142.835 370.04 142.933C370.138 143.032 370.217 143.149 370.27 143.279C370.322 143.408 370.349 143.546 370.348 143.686Z" fill="white"/>
<path d="M391.021 126.506H299.368L306.147 61.2719H398.574L391.021 126.506Z" fill="#263238"/>
<path d="M386.356 126.506H294.703L301.482 61.2719H393.908L386.356 126.506Z" fill="#455A64"/>
<path d="M382.951 123.555H297.912L304.197 63.0227H389.96L382.951 123.555Z" fill="#FAFAFA"/>
<path d="M307.258 113.436C307.142 113.436 307.99 104.312 309.15 93.0996C310.31 81.8876 311.338 72.788 311.461 72.8045C311.585 72.8209 310.729 81.9204 309.569 93.1407C308.409 104.361 307.381 113.436 307.258 113.436Z" fill="#263238"/>
<path d="M322.748 74.802C319.909 75.0869 317.048 75.0869 314.209 74.802C317.048 74.517 319.909 74.517 322.748 74.802Z" fill="#263238"/>
<path d="M359.069 74.802C359.069 74.9171 351.459 75.0157 342.064 75.0157C332.669 75.0157 325.06 74.9171 325.06 74.802C325.06 74.6869 332.669 74.5883 342.064 74.5883C351.459 74.5883 359.069 74.6622 359.069 74.802Z" fill="#8B7F60"/>
<path d="M321.737 96.2972C318.897 96.5822 316.037 96.5822 313.197 96.2972C316.037 96.0123 318.897 96.0123 321.737 96.2972Z" fill="#263238"/>
<path d="M358.066 96.2972C358.066 96.4123 350.448 96.5109 341.061 96.5109C331.675 96.5109 324.057 96.4123 324.057 96.2972C324.057 96.1821 331.666 96.0835 341.061 96.0835C350.456 96.0835 358.066 96.1739 358.066 96.2972Z" fill="#8B7F60"/>
<path d="M346.483 106.211C346.483 106.326 338.865 106.424 329.478 106.424C320.092 106.424 312.474 106.326 312.474 106.211C312.474 106.095 320.083 105.997 329.478 105.997C338.873 105.997 346.483 106.095 346.483 106.211Z" fill="#8B7F60"/>
<path d="M326.508 80.8601C322.509 81.145 318.496 81.145 314.497 80.8601C318.496 80.5751 322.509 80.5751 326.508 80.8601Z" fill="#8B7F60"/>
<path d="M326.203 89.7623C322.205 90.0473 318.191 90.0473 314.192 89.7623C318.191 89.4773 322.205 89.4773 326.203 89.7623Z" fill="#8B7F60"/>
<path d="M336.356 102.487C332.357 102.772 328.343 102.772 324.345 102.487C328.343 102.202 332.357 102.202 336.356 102.487Z" fill="#8B7F60"/>
<path d="M370.2 80.8601C370.2 80.9752 363.331 81.0738 354.857 81.0738C346.384 81.0738 339.515 80.9752 339.515 80.8601C339.515 80.745 346.376 80.6464 354.857 80.6464C363.339 80.6464 370.2 80.7368 370.2 80.8601Z" fill="#263238"/>
<path d="M360.73 90.2803C360.73 90.3953 353.861 90.494 345.388 90.494C336.914 90.494 330.045 90.3953 330.045 90.2803C330.045 90.1652 336.914 90.0665 345.388 90.0665C353.861 90.0665 360.73 90.157 360.73 90.2803Z" fill="#263238"/>
<path d="M371.294 102.487C371.294 102.602 364.425 102.701 355.951 102.701C347.478 102.701 340.608 102.602 340.608 102.487C340.608 102.372 347.478 102.273 355.951 102.273C364.425 102.273 371.294 102.364 371.294 102.487Z" fill="#263238"/>
<path d="M343.274 113.436C343.274 113.551 336.405 113.65 327.931 113.65C319.458 113.65 312.613 113.51 312.613 113.436C312.613 113.362 319.483 113.222 327.956 113.222C336.429 113.222 343.274 113.271 343.274 113.436Z" fill="#263238"/>
<path d="M377.209 113.436C377.209 113.551 370.34 113.65 361.866 113.65C353.393 113.65 346.523 113.551 346.523 113.436C346.523 113.321 353.393 113.222 361.866 113.222C370.34 113.222 377.209 113.271 377.209 113.436Z" fill="#263238"/>
<path d="M343.273 116.938C343.273 117.061 336.404 117.151 327.931 117.151C319.457 117.151 312.588 117.061 312.588 116.938C312.588 116.814 319.457 116.724 327.931 116.724C336.404 116.724 343.273 116.823 343.273 116.938Z" fill="#263238"/>
<path d="M344.763 83.4165C344.763 83.5316 337.893 83.6302 329.42 83.6302C320.946 83.6302 314.077 83.5316 314.077 83.4165C314.077 83.3014 320.946 83.2028 329.42 83.2028C337.893 83.2028 344.763 83.2932 344.763 83.4165Z" fill="#263238"/>
<path d="M336.586 80.893C333.958 81.178 331.307 81.178 328.68 80.893C331.307 80.6081 333.958 80.6081 336.586 80.893Z" fill="#455A64"/>
<path d="M320.733 99.2153C318.105 99.5003 315.455 99.5003 312.827 99.2153C315.455 98.9303 318.105 98.9303 320.733 99.2153Z" fill="#455A64"/>
<path d="M320.551 102.487C317.924 102.772 315.273 102.772 312.646 102.487C315.273 102.202 317.924 102.202 320.551 102.487Z" fill="#455A64"/>
<path d="M389.022 69.4178C389.022 69.5411 369.903 69.6398 346.317 69.6398C322.732 69.6398 303.563 69.5411 303.563 69.4178C303.563 69.2945 322.682 69.2041 346.285 69.2041C369.887 69.2041 389.022 69.3027 389.022 69.4178Z" fill="#263238"/>
<path d="M309.363 67.5437C309.922 67.5437 310.375 67.0911 310.375 66.5327C310.375 65.9743 309.922 65.5216 309.363 65.5216C308.805 65.5216 308.352 65.9743 308.352 66.5327C308.352 67.0911 308.805 67.5437 309.363 67.5437Z" fill="white"/>
<path d="M313.707 67.5437C314.266 67.5437 314.719 67.0911 314.719 66.5327C314.719 65.9743 314.266 65.5216 313.707 65.5216C313.148 65.5216 312.695 65.9743 312.695 66.5327C312.695 67.0911 313.148 67.5437 313.707 67.5437Z" fill="white"/>
<path d="M318.051 67.5437C318.61 67.5437 319.063 67.0911 319.063 66.5327C319.063 65.9743 318.61 65.5216 318.051 65.5216C317.492 65.5216 317.039 65.9743 317.039 66.5327C317.039 67.0911 317.492 67.5437 318.051 67.5437Z" fill="white"/>
<path d="M235.759 372.933H228.618V382.666H235.759V372.933Z" fill="#263238"/>
<path d="M274.038 259.365H337.392V256.283H274.038V259.365Z" fill="#263238"/>
<path d="M347.206 259.365L359.093 214.871H309.618L298.857 259.365H347.206Z" fill="#263238"/>
<path d="M301.828 256.004H346.022L356.305 216.926H311.881L301.828 256.004Z" fill="#F5F5F5"/>
<path d="M312.983 224.496L310.243 235.56H339.547L342.673 224.496H312.983Z" fill="#E0E0E0"/>
<path d="M336.47 223.033C336.47 223.156 331.337 223.247 324.994 223.247C318.651 223.247 313.518 223.156 313.518 223.033C313.518 222.91 318.651 222.819 324.994 222.819C331.337 222.819 336.47 222.918 336.47 223.033Z" fill="#455A64"/>
<path d="M323.135 226.609C320.056 226.894 316.958 226.894 313.88 226.609C316.958 226.324 320.056 226.324 323.135 226.609Z" fill="#263238"/>
<path d="M330.555 226.436C328.558 226.721 326.53 226.721 324.533 226.436C326.53 226.151 328.558 226.151 330.555 226.436Z" fill="#263238"/>
<path d="M338.938 228.615C338.938 228.738 333.27 228.837 326.277 228.837C319.284 228.837 313.616 228.738 313.616 228.615C313.616 228.491 319.284 228.401 326.277 228.401C333.27 228.401 338.938 228.516 338.938 228.615Z" fill="#455A64"/>
<path d="M321.3 230.448C318.565 230.734 315.808 230.734 313.073 230.448C315.808 230.161 318.565 230.161 321.3 230.448Z" fill="#8B7F60"/>
<path d="M336.668 233.07C336.668 233.185 331.411 233.283 324.928 233.283C318.446 233.283 313.181 233.185 313.181 233.07C313.181 232.955 318.438 232.856 324.928 232.856C331.419 232.856 336.668 232.946 336.668 233.07Z" fill="#455A64"/>
<path d="M319.383 238.733C316.374 239.016 313.344 239.016 310.334 238.733C313.344 238.451 316.374 238.451 319.383 238.733Z" fill="#455A64"/>
<path d="M327.15 238.774C326.129 238.973 325.086 239.037 324.048 238.964C323.011 239.027 321.969 238.944 320.955 238.717C321.976 238.518 323.019 238.454 324.057 238.528C325.094 238.464 326.135 238.548 327.15 238.774Z" fill="#263238"/>
<path d="M331.534 238.561C331.534 238.684 330.942 238.774 330.218 238.774C329.494 238.774 328.91 238.684 328.91 238.561C328.91 238.437 329.502 238.347 330.218 238.347C330.934 238.347 331.534 238.446 331.534 238.561Z" fill="#263238"/>
<path d="M313.361 241.002C313.361 241.125 312.711 241.216 311.913 241.216C311.115 241.216 310.474 241.125 310.474 241.002C310.474 240.879 311.124 240.788 311.913 240.788C312.703 240.788 313.361 240.887 313.361 241.002Z" fill="#8B7F60"/>
<path d="M321.999 241.002C319.71 241.287 317.395 241.287 315.105 241.002C317.395 240.717 319.71 240.717 321.999 241.002Z" fill="#263238"/>
<path d="M342.599 240.739C342.599 240.862 338.486 240.953 333.394 240.953C328.301 240.953 324.18 240.862 324.18 240.739C324.18 240.616 328.293 240.525 333.394 240.525C338.494 240.525 342.599 240.624 342.599 240.739Z" fill="#455A64"/>
<path d="M312.918 243.361C312.918 243.476 312.26 243.575 311.437 243.575C310.614 243.575 309.956 243.476 309.956 243.361C309.956 243.246 310.614 243.147 311.437 243.147C312.26 243.147 312.918 243.238 312.918 243.361Z" fill="#263238"/>
<path d="M317.458 243.312C316.889 243.524 316.277 243.597 315.673 243.526C315.067 243.596 314.452 243.523 313.88 243.312C314.454 243.105 315.067 243.032 315.673 243.098C316.277 243.032 316.888 243.105 317.458 243.312Z" fill="#263238"/>
<path d="M330.992 243.098C327.128 243.383 323.248 243.383 319.384 243.098C323.248 242.813 327.128 242.813 330.992 243.098Z" fill="#455A64"/>
<path d="M323.834 247.2C321.499 247.411 319.153 247.483 316.809 247.414C314.465 247.483 312.119 247.412 309.783 247.2C312.118 246.983 314.465 246.912 316.809 246.986C319.153 246.912 321.499 246.984 323.834 247.2Z" fill="#455A64"/>
<path d="M332.036 247.019C329.923 247.304 327.782 247.304 325.669 247.019C327.782 246.734 329.923 246.734 332.036 247.019Z" fill="#8B7F60"/>
<path d="M344.219 247.019C340.704 247.304 337.171 247.304 333.656 247.019C337.171 246.734 340.704 246.734 344.219 247.019Z" fill="#263238"/>
<path d="M341.406 222.86C341.406 222.984 340.912 223.074 340.312 223.074C339.711 223.074 339.218 222.984 339.218 222.86C339.218 222.737 339.711 222.647 340.312 222.647C340.912 222.647 341.406 222.762 341.406 222.86Z" fill="#263238"/>
<path d="M319.12 221.381C317.531 221.666 315.904 221.666 314.315 221.381C315.904 221.096 317.531 221.096 319.12 221.381Z" fill="#8B7F60"/>
<path d="M355.565 219.737H311.141L311.889 216.926H356.313L355.565 219.737Z" fill="#EBEBEB"/>
<path d="M313.756 218.833C314.024 218.833 314.241 218.616 314.241 218.348C314.241 218.08 314.024 217.863 313.756 217.863C313.488 217.863 313.271 218.08 313.271 218.348C313.271 218.616 313.488 218.833 313.756 218.833Z" fill="#FAFAFA"/>
<path d="M315.427 218.833C315.695 218.833 315.912 218.616 315.912 218.348C315.912 218.08 315.695 217.863 315.427 217.863C315.159 217.863 314.941 218.08 314.941 218.348C314.941 218.616 315.159 218.833 315.427 218.833Z" fill="#FAFAFA"/>
<path d="M317.097 218.833C317.365 218.833 317.582 218.616 317.582 218.348C317.582 218.08 317.365 217.863 317.097 217.863C316.829 217.863 316.611 218.08 316.611 218.348C316.611 218.616 316.829 218.833 317.097 218.833Z" fill="#FAFAFA"/>
<path d="M409.704 263.509H304.37V324.92H409.704V263.509Z" fill="#263238"/>
<path d="M352.356 263.509H304.37V324.92H352.356V263.509Z" fill="#455A64"/>
<path d="M347.47 284.363C347.457 284.259 347.457 284.154 347.47 284.05V283.154C347.47 282.332 347.47 281.206 347.429 279.743C347.429 276.776 347.379 272.534 347.346 267.306L347.503 267.462L308.903 267.52L309.117 267.306V271.737C309.117 273.2 309.117 274.655 309.117 276.077C309.117 278.929 309.117 281.699 309.117 284.346L308.92 284.149L336.569 284.239L344.599 284.297H346.754H347.322H347.519H347.346H346.803H344.689L336.701 284.346L308.92 284.445H308.714V284.239C308.714 281.593 308.714 278.822 308.714 275.97V267.323L308.928 267.109L347.527 267.166H347.684V267.323C347.642 272.592 347.618 276.866 347.593 279.85C347.593 281.297 347.593 282.431 347.593 283.228V284.1C347.478 284.272 347.47 284.412 347.47 284.363Z" fill="#263238"/>
<path d="M329.807 275.838C329.699 275.372 329.439 274.955 329.066 274.655C328.866 274.515 328.635 274.426 328.393 274.396C328.15 274.366 327.904 274.395 327.676 274.482C327.401 274.588 327.165 274.774 326.998 275.016C326.83 275.258 326.74 275.544 326.738 275.838C326.742 276.132 326.833 276.418 327 276.659C327.167 276.901 327.403 277.087 327.676 277.195C327.905 277.278 328.151 277.305 328.393 277.274C328.635 277.242 328.866 277.153 329.066 277.014C329.436 276.711 329.696 276.295 329.807 275.83C329.807 275.83 329.881 275.978 329.807 276.249C329.74 276.644 329.533 277 329.223 277.252C328.987 277.444 328.706 277.573 328.406 277.626C328.107 277.68 327.799 277.656 327.511 277.556C327.151 277.433 326.839 277.2 326.618 276.891C326.396 276.581 326.277 276.211 326.277 275.83C326.277 275.45 326.396 275.079 326.618 274.77C326.839 274.46 327.151 274.227 327.511 274.104C327.798 274.004 328.106 273.978 328.405 274.03C328.705 274.082 328.986 274.209 329.223 274.4C329.533 274.652 329.74 275.009 329.807 275.403C329.889 275.69 329.831 275.838 329.807 275.838Z" fill="#263238"/>
<path d="M347.47 303.145C347.458 303.039 347.458 302.931 347.47 302.825V301.929C347.47 301.107 347.47 299.981 347.428 298.518C347.428 295.558 347.379 291.317 347.346 286.081L347.502 286.237L308.903 286.303L309.117 286.089V290.519C309.117 291.991 309.117 293.438 309.117 294.868C309.117 297.72 309.117 300.49 309.117 303.137L308.919 302.932L336.569 303.03L344.598 303.088H346.754H347.321H347.519H347.346H346.803H344.689L336.701 303.145L308.919 303.244H308.714V303.039C308.714 300.392 308.714 297.622 308.714 294.769V286.097C308.664 286.097 309.117 285.686 308.928 285.875L347.527 285.941H347.683V286.056C347.642 291.333 347.618 295.608 347.593 298.592C347.593 300.038 347.593 301.164 347.593 301.97V302.833C347.478 303.055 347.47 303.154 347.47 303.145Z" fill="#263238"/>
<path d="M329.807 294.613C329.691 294.157 329.431 293.751 329.066 293.454C328.847 293.297 328.589 293.204 328.32 293.184C328.052 293.164 327.783 293.218 327.543 293.34C327.303 293.462 327.101 293.648 326.959 293.876C326.817 294.105 326.741 294.368 326.738 294.638C326.74 294.932 326.83 295.218 326.998 295.46C327.165 295.702 327.401 295.888 327.676 295.994C327.904 296.081 328.15 296.11 328.393 296.08C328.635 296.05 328.866 295.961 329.066 295.821C329.437 295.519 329.698 295.103 329.807 294.638C329.807 294.638 329.881 294.786 329.807 295.057C329.74 295.451 329.533 295.807 329.223 296.06C328.987 296.252 328.706 296.381 328.406 296.434C328.107 296.487 327.799 296.463 327.511 296.364C327.151 296.24 326.839 296.008 326.618 295.698C326.396 295.389 326.277 295.018 326.277 294.638C326.277 294.257 326.396 293.886 326.618 293.577C326.839 293.267 327.151 293.035 327.511 292.911C327.799 292.812 328.107 292.788 328.406 292.841C328.706 292.895 328.987 293.023 329.223 293.215C329.533 293.468 329.74 293.824 329.807 294.218C329.889 294.465 329.831 294.613 329.807 294.613Z" fill="#263238"/>
<path d="M347.47 321.92C347.457 321.816 347.457 321.711 347.47 321.607V320.711C347.47 319.889 347.47 318.763 347.429 317.3C347.429 314.333 347.379 310.091 347.346 304.863L347.503 305.019L308.903 305.077L309.117 304.863V309.294C309.117 310.757 309.117 312.212 309.117 313.634C309.117 316.486 309.117 319.256 309.117 321.903L308.92 321.706L336.569 321.796L344.599 321.854H346.754H347.322H347.519H347.346H346.803H344.689L336.701 321.903L308.92 322.002H308.714V321.796C308.714 319.15 308.714 316.38 308.714 313.527V304.88L308.928 304.666L347.527 304.724H347.684V304.88C347.642 310.149 347.618 314.423 347.593 317.407C347.593 318.854 347.593 319.988 347.593 320.785V321.657C347.478 321.829 347.47 321.928 347.47 321.92Z" fill="#263238"/>
<path d="M329.807 313.396C329.699 312.929 329.439 312.513 329.066 312.212C328.866 312.072 328.635 311.983 328.393 311.953C328.15 311.923 327.904 311.953 327.676 312.039C327.401 312.145 327.165 312.331 326.998 312.573C326.83 312.815 326.74 313.102 326.738 313.396C326.741 313.665 326.817 313.928 326.959 314.157C327.101 314.386 327.303 314.571 327.543 314.693C327.783 314.815 328.052 314.869 328.32 314.849C328.589 314.829 328.847 314.736 329.066 314.579C329.436 314.276 329.696 313.86 329.807 313.396C329.807 313.396 329.881 313.544 329.807 313.815C329.74 314.209 329.533 314.565 329.223 314.818C328.987 315.01 328.706 315.139 328.406 315.192C328.107 315.245 327.799 315.221 327.511 315.122C327.151 314.998 326.839 314.766 326.618 314.456C326.396 314.147 326.277 313.776 326.277 313.396C326.277 313.015 326.396 312.644 326.618 312.335C326.839 312.025 327.151 311.793 327.511 311.669C327.798 311.569 328.106 311.544 328.405 311.595C328.705 311.647 328.986 311.775 329.223 311.965C329.533 312.218 329.74 312.574 329.807 312.968C329.889 313.248 329.831 313.396 329.807 313.396Z" fill="#263238"/>
<path d="M234.221 374.906L163.825 374.848V263.509H234.221V374.906Z" fill="#263238"/>
<path d="M413.529 259.226H160.428V265.062H413.529V259.226Z" fill="#263238"/>
<path d="M171.673 265.062H163.825V383.183H171.673V265.062Z" fill="#263238"/>
<path d="M409.704 265.062H401.855V383.216H409.704V265.062Z" fill="#263238"/>
<path d="M360.204 265.062H352.355V383.216H360.204V265.062Z" fill="#263238"/>
<path d="M196.017 259.226C196.017 259.341 188.473 259.44 179.169 259.44C169.864 259.44 162.32 259.341 162.32 259.226C162.32 259.111 169.864 259.012 179.169 259.012C188.473 259.012 196.017 259.103 196.017 259.226Z" fill="#455A64"/>
<path d="M270.023 377.429L270.221 368.988L254.384 368.511L253.965 380.841L254.944 380.931C259.304 381.309 277.156 382.526 280.093 381.753C283.383 380.865 270.023 377.429 270.023 377.429Z" fill="#8B7F60"/>
<g opacity="0.4">
<path d="M276.539 379.345C276.539 379.345 281.22 380.841 280.603 381.605C279.986 382.37 261.912 381.803 253.965 380.865V380.512L275.05 381.334C275.05 381.334 275.593 379.353 276.539 379.345Z" fill="white"/>
</g>
<path d="M253.751 380.495H254.022L254.845 380.569L257.716 380.783C260.143 380.947 263.475 381.12 267.21 381.243C270.945 381.367 274.285 381.391 276.72 381.383C274.293 381.383 270.961 381.301 267.218 381.186C263.475 381.071 260.151 380.915 257.724 380.783L254.845 380.635H254.022L253.751 380.495Z" fill="#263238"/>
<path d="M275.066 381.58C275.207 381.107 275.403 380.652 275.65 380.224C275.948 379.833 276.287 379.474 276.662 379.156C276.182 379.351 275.772 379.688 275.488 380.121C275.203 380.554 275.056 381.062 275.066 381.58Z" fill="#263238"/>
<path d="M270.467 379.073C270.508 379.073 270.747 378.835 270.986 378.482C271.224 378.128 271.389 377.808 271.348 377.783C271.306 377.758 271.068 378.013 270.829 378.375C270.591 378.736 270.426 379.041 270.467 379.073Z" fill="#263238"/>
<path d="M269.209 378.358C269.209 378.358 269.497 378.235 269.776 377.997C270.056 377.758 270.253 377.536 270.221 377.495C270.188 377.454 269.933 377.618 269.653 377.857C269.373 378.095 269.176 378.317 269.209 378.358Z" fill="#263238"/>
<path d="M268.444 376.838C268.706 376.938 268.987 376.983 269.267 376.969C269.543 377.011 269.824 376.989 270.09 376.903C269.827 376.804 269.547 376.759 269.267 376.772C268.815 376.755 268.444 376.78 268.444 376.838Z" fill="#263238"/>
<path d="M268.188 375.777C268.458 375.962 268.775 376.065 269.102 376.073C269.422 376.136 269.755 376.101 270.056 375.974C269.747 375.911 269.433 375.881 269.118 375.884C268.813 375.814 268.501 375.778 268.188 375.777Z" fill="#263238"/>
<path d="M271.052 377.709C271.387 377.766 271.729 377.766 272.064 377.709C272.434 377.672 272.8 377.603 273.158 377.503C273.374 377.447 273.584 377.367 273.783 377.265C273.906 377.201 274.001 377.092 274.046 376.961C274.066 376.886 274.063 376.808 274.038 376.735C274.013 376.661 273.967 376.597 273.906 376.55C273.524 376.348 273.083 376.284 272.659 376.369C272.234 376.455 271.853 376.684 271.578 377.019C271.416 377.217 271.296 377.446 271.225 377.693C271.206 377.782 271.206 377.874 271.225 377.964C271.342 377.664 271.509 377.387 271.718 377.142C271.953 376.882 272.259 376.696 272.598 376.608C273.004 376.488 273.44 376.529 273.816 376.723C273.972 376.846 273.898 377.035 273.717 377.142C273.532 377.233 273.339 377.307 273.141 377.364C272.794 377.471 272.439 377.554 272.08 377.61C271.48 377.684 271.052 377.676 271.052 377.709Z" fill="#263238"/>
<path d="M271.307 377.766C271.438 377.559 271.488 377.31 271.447 377.068C271.425 376.799 271.338 376.539 271.192 376.312C271.112 376.159 270.994 376.029 270.851 375.934C270.707 375.84 270.541 375.783 270.369 375.769C270.265 375.787 270.172 375.846 270.11 375.932C270.049 376.018 270.023 376.125 270.04 376.229C270.061 376.393 270.117 376.55 270.205 376.69C270.328 376.918 270.484 377.129 270.665 377.314C270.819 377.501 271.013 377.65 271.233 377.75C271.233 377.75 271.036 377.561 270.764 377.224C270.608 377.033 270.473 376.827 270.361 376.607C270.229 376.386 270.139 375.999 270.402 375.958C270.665 375.917 270.904 376.205 271.052 376.41C271.192 376.612 271.285 376.842 271.324 377.084C271.342 377.312 271.336 377.54 271.307 377.766Z" fill="#263238"/>
<path d="M254.203 376.172C254.203 376.213 254.664 376.172 255.371 376.254C256.303 376.381 257.178 376.771 257.895 377.378C258.612 377.985 259.141 378.785 259.419 379.682C259.526 380.058 259.614 380.439 259.682 380.824C259.703 380.718 259.703 380.609 259.682 380.504C259.654 380.226 259.605 379.951 259.534 379.682C259.279 378.742 258.745 377.902 258.001 377.272C257.258 376.642 256.341 376.253 255.371 376.155C255.081 376.126 254.789 376.126 254.499 376.155C254.4 376.149 254.301 376.154 254.203 376.172Z" fill="#263238"/>
<path d="M256.046 369.637C255.908 370.714 255.828 371.798 255.808 372.884C255.732 373.978 255.718 375.076 255.767 376.172C255.906 375.095 255.985 374.011 256.005 372.925C256.086 371.831 256.099 370.733 256.046 369.637Z" fill="#263238"/>
<path d="M261.747 379.427C262.498 379.629 263.273 379.731 264.051 379.731C264.826 379.791 265.605 379.752 266.37 379.616C266.37 379.558 265.334 379.616 264.059 379.542C262.784 379.468 261.755 379.378 261.747 379.427Z" fill="#263238"/>
<path d="M258.646 379.328C258.646 379.328 258.72 379.55 258.818 379.789C258.917 380.027 258.966 380.249 259.024 380.241C259.082 380.233 259.114 379.994 259.024 379.723C258.933 379.452 258.678 379.295 258.646 379.328Z" fill="#263238"/>
<path d="M257.494 377.84C257.494 377.84 257.552 378.046 257.708 378.219C257.864 378.391 258.029 378.498 258.07 378.457C258.111 378.416 258.012 378.26 257.848 378.087C257.683 377.914 257.56 377.808 257.494 377.84Z" fill="#263238"/>
<path d="M255.849 377.125C255.849 377.183 256.071 377.183 256.301 377.273C256.531 377.364 256.696 377.487 256.737 377.454C256.778 377.421 256.655 377.199 256.367 377.092C256.079 376.986 255.849 377.076 255.849 377.125Z" fill="#263238"/>
<path d="M254.681 376.772C254.681 376.821 254.755 376.903 254.878 376.961C255.002 377.018 255.133 377.018 255.15 376.961C255.166 376.903 255.084 376.821 254.952 376.772C254.821 376.723 254.705 376.723 254.681 376.772Z" fill="#263238"/>
<g opacity="0.3">
<path d="M254.236 375.752L270.064 375.974L270.097 374.067L254.146 374.741L254.236 375.752Z" fill="black"/>
</g>
<path d="M295 378.745V370.294L279.155 370.237L279.064 382.567L280.043 382.633C284.412 382.887 302.255 383.635 305.209 382.764C308.45 381.819 295 378.745 295 378.745Z" fill="#8B7F60"/>
<g opacity="0.4">
<path d="M301.564 380.479C301.564 380.479 306.278 381.86 305.677 382.633C305.077 383.405 287.003 383.331 279.031 382.633V382.279L300.124 382.55C300.124 382.55 300.643 380.52 301.564 380.479Z" fill="white"/>
</g>
<path d="M278.817 382.23H279.089L279.87 382.279L282.75 382.419C285.177 382.518 288.508 382.608 292.252 382.625C295.995 382.641 299.326 382.625 301.762 382.518L304.641 382.411L305.422 382.362H305.694H304.641L301.762 382.403C299.294 382.403 295.962 382.477 292.252 382.46C288.541 382.444 285.185 382.37 282.75 382.312L279.87 382.23H278.817Z" fill="#263238"/>
<path d="M300.158 382.764C300.281 382.286 300.464 381.825 300.701 381.392C300.986 380.987 301.317 380.618 301.688 380.29C301.193 380.47 300.782 380.827 300.536 381.293C300.23 381.718 300.095 382.244 300.158 382.764Z" fill="#263238"/>
<path d="M295.494 380.372C295.535 380.372 295.757 380.126 295.995 379.764C296.234 379.402 296.374 379.09 296.333 379.057C296.291 379.024 296.061 379.304 295.831 379.665C295.6 380.027 295.444 380.339 295.494 380.372Z" fill="#263238"/>
<path d="M294.21 379.69C294.21 379.69 294.498 379.558 294.769 379.32C295.041 379.082 295.238 378.843 295.205 378.802C295.172 378.761 294.917 378.934 294.646 379.172C294.374 379.41 294.177 379.649 294.21 379.69Z" fill="#263238"/>
<path d="M293.403 378.194C293.667 378.287 293.947 378.323 294.226 378.301C294.503 378.334 294.784 378.306 295.049 378.218C295.049 378.161 294.687 378.112 294.226 378.112C293.765 378.112 293.403 378.12 293.403 378.194Z" fill="#263238"/>
<path d="M293.132 377.134C293.405 377.314 293.726 377.408 294.053 377.405C294.376 377.469 294.711 377.426 295.008 377.282C294.697 377.234 294.384 377.212 294.07 377.216C293.76 377.161 293.446 377.133 293.132 377.134Z" fill="#263238"/>
<path d="M296.036 378.991C296.37 379.054 296.714 379.054 297.048 378.991C297.417 378.95 297.781 378.871 298.134 378.753C298.352 378.697 298.562 378.614 298.759 378.506C298.881 378.435 298.972 378.32 299.014 378.185C299.029 378.11 299.022 378.033 298.995 377.961C298.967 377.89 298.92 377.828 298.858 377.783C298.47 377.59 298.028 377.538 297.606 377.636C297.185 377.733 296.81 377.974 296.546 378.317C296.393 378.519 296.278 378.747 296.209 378.991C296.187 379.083 296.187 379.179 296.209 379.271C296.318 378.972 296.477 378.695 296.678 378.449C296.909 378.181 297.211 377.984 297.55 377.881C297.949 377.75 298.384 377.783 298.759 377.972C298.924 378.095 298.858 378.284 298.677 378.391C298.497 378.491 298.306 378.571 298.109 378.629C297.765 378.745 297.413 378.835 297.056 378.901C296.423 378.942 296.036 378.942 296.036 378.991Z" fill="#263238"/>
<path d="M296.299 379.049C296.418 378.834 296.459 378.584 296.414 378.342C296.386 378.074 296.293 377.817 296.143 377.594C296.058 377.447 295.939 377.323 295.796 377.232C295.652 377.142 295.489 377.088 295.32 377.076C295.269 377.086 295.219 377.106 295.176 377.135C295.132 377.164 295.094 377.201 295.065 377.245C295.036 377.288 295.016 377.337 295.006 377.389C294.996 377.44 294.997 377.493 295.007 377.544C295.031 377.706 295.09 377.86 295.18 377.997C295.312 378.222 295.472 378.429 295.657 378.613C295.97 378.925 296.225 379.049 296.233 379.024C296.241 378.999 296.036 378.843 295.756 378.523C295.594 378.331 295.451 378.125 295.328 377.906C295.188 377.692 295.098 377.306 295.328 377.265C295.559 377.224 295.838 377.495 295.995 377.692C296.139 377.89 296.237 378.118 296.283 378.358C296.307 378.588 296.313 378.819 296.299 379.049Z" fill="#263238"/>
<path d="M279.155 377.906C279.155 377.906 279.608 377.865 280.323 377.955C281.256 378.063 282.14 378.431 282.874 379.016C283.602 379.608 284.152 380.39 284.461 381.276C284.7 381.95 284.725 382.411 284.758 382.402C284.774 382.296 284.774 382.188 284.758 382.082C284.727 381.804 284.672 381.529 284.593 381.26C284.312 380.328 283.756 379.502 282.997 378.892C282.237 378.282 281.311 377.915 280.34 377.84C280.05 377.814 279.758 377.814 279.468 377.84C279.262 377.865 279.155 377.89 279.155 377.906Z" fill="#263238"/>
<path d="M280.825 371.322C280.71 372.414 280.661 373.512 280.677 374.61C280.621 375.706 280.635 376.804 280.718 377.898C280.828 376.806 280.877 375.708 280.866 374.61C280.922 373.514 280.908 372.416 280.825 371.322Z" fill="#263238"/>
<path d="M286.781 380.964C287.538 381.143 288.315 381.223 289.093 381.202C289.871 381.241 290.65 381.181 291.413 381.022C291.413 380.972 290.368 381.022 289.093 381.022C287.818 381.022 286.789 380.907 286.781 380.964Z" fill="#263238"/>
<path d="M283.672 380.939C283.672 380.98 283.762 381.161 283.861 381.4C283.96 381.638 284.026 381.852 284.083 381.844C284.141 381.835 284.165 381.597 284.042 381.326C283.919 381.054 283.713 380.906 283.672 380.939Z" fill="#263238"/>
<path d="M282.512 379.484C282.471 379.484 282.578 379.682 282.742 379.854C282.907 380.027 283.063 380.126 283.104 380.084C283.145 380.043 283.038 379.887 282.874 379.715C282.709 379.542 282.553 379.443 282.512 379.484Z" fill="#263238"/>
<path d="M280.842 378.81C280.842 378.868 281.064 378.868 281.294 378.95C281.524 379.032 281.697 379.156 281.738 379.123C281.779 379.09 281.648 378.868 281.36 378.769C281.072 378.671 280.825 378.761 280.842 378.81Z" fill="#263238"/>
<path d="M279.648 378.49C279.648 378.539 279.722 378.621 279.854 378.679C279.986 378.737 280.109 378.728 280.126 378.679C280.142 378.63 280.052 378.547 279.92 378.498C279.788 378.449 279.706 378.441 279.648 378.49Z" fill="#263238"/>
<g opacity="0.3">
<path d="M279.18 377.479L295.008 377.29L294.992 375.383L279.057 376.476L279.18 377.479Z" fill="black"/>
</g>
<path d="M260.02 234.097L266.362 253.176C268.073 258.33 272.582 259.218 278.019 259.218H313.304V251.302L281.072 246.707L273.388 227.094L260.02 234.097Z" fill="#FFBE9D"/>
<path d="M317.187 249.666L319.984 248.343C319.984 248.343 323.003 242.515 323.694 242.753C324.385 242.991 324.591 244.701 323.381 247.373L327.1 246.312C327.1 246.312 335.162 250.036 334.808 250.537C334.454 251.039 333.788 252.231 332.036 251.359C330.284 250.488 327.972 249.403 327.972 249.403L323.628 250.644L329.231 251.359L334.504 256.143C334.504 256.143 332.768 257.442 331.279 256.069L317.59 259.004L313.304 259.251V251.335L317.187 249.666Z" fill="#FFBE9D"/>
<path d="M331.279 256.045C331.222 256.045 330.967 255.675 330.457 255.14C330.166 254.834 329.83 254.573 329.461 254.368C328.997 254.146 328.494 254.014 327.981 253.981C326.589 253.887 325.211 253.653 323.867 253.283C325.261 253.235 326.655 253.329 328.03 253.562C328.606 253.597 329.167 253.757 329.675 254.031C330.071 254.269 330.419 254.579 330.704 254.943C330.99 255.253 331.189 255.633 331.279 256.045Z" fill="#EB996E"/>
<path d="M329.14 256.587C329.082 256.587 329.041 256.308 328.663 256.226C328.284 256.143 327.643 256.078 327.017 256.012C326.211 255.999 325.408 255.919 324.615 255.773C325.407 255.497 326.258 255.432 327.083 255.584C327.668 255.635 328.245 255.754 328.803 255.938C328.9 255.974 328.988 256.032 329.059 256.108C329.131 256.183 329.184 256.274 329.214 256.374C329.214 256.522 329.165 256.595 329.14 256.587Z" fill="#EB996E"/>
<path d="M230.231 155.621L228.314 194.403L244.932 195.965L245.854 186.594C245.854 186.594 251.711 188.041 253.488 182.624C254.632 179.163 255.643 152.053 255.643 152.053L230.231 155.621Z" fill="#FFBE9D"/>
<path d="M257.075 156.541C257.535 160.175 252.459 162.295 252.459 162.295L251.571 170.885C250.777 170.829 249.979 170.829 249.185 170.885C249.613 166.858 244.414 167.647 243.887 170.392C243.361 173.138 246.355 174.798 246.355 174.798C244.282 177.979 243.435 179.664 240.49 182.648C237.298 185.879 235.554 186.142 232.263 186.043L228.635 185.879C228.635 185.879 227.335 182.78 226.389 175.456C225.937 171.938 223.181 167.318 223.97 161.597C226.192 145.329 241.789 147.047 241.789 147.047C249.942 147.22 256.005 148.124 257.075 156.541Z" fill="#263238"/>
<path d="M245.154 147.467C248.675 147.557 252.328 147.837 255.421 149.522C258.514 151.207 260.9 154.684 260.267 158.145L258.506 158.465L257.782 157.166C257.782 157.857 257.782 158.547 257.782 159.238L254.689 160.101C254.224 157.462 253.293 154.927 251.941 152.613" fill="#263238"/>
<path d="M230.889 165.312C230.767 165.125 230.675 164.92 230.618 164.704C230.418 164.129 230.27 163.538 230.174 162.937C229.839 160.941 229.979 158.895 230.58 156.964C231.182 155.032 232.229 153.268 233.637 151.815C234.052 151.372 234.506 150.968 234.994 150.607C235.165 150.457 235.36 150.338 235.57 150.253C235.611 150.311 234.855 150.878 233.859 152.012C232.566 153.49 231.594 155.22 231.004 157.092C230.439 158.971 230.265 160.947 230.494 162.896C230.651 164.4 230.963 165.288 230.889 165.312Z" fill="#455A64"/>
<path d="M234.164 163.956C233.845 163.331 233.626 162.66 233.514 161.967C233.149 160.311 233.04 158.609 233.193 156.92C233.336 155.225 233.735 153.562 234.378 151.988C234.609 151.322 234.945 150.698 235.373 150.138C234.488 152.316 233.898 154.602 233.621 156.936C233.488 159.29 233.67 161.651 234.164 163.956Z" fill="#455A64"/>
<path d="M255.38 157.939C255.298 157.939 255.158 156.936 254.483 155.473C253.617 153.544 252.228 151.895 250.474 150.713C248.719 149.53 246.669 148.862 244.554 148.782C242.909 148.708 241.93 148.954 241.913 148.881C242.13 148.771 242.363 148.699 242.604 148.667C243.249 148.539 243.905 148.479 244.562 148.486C246.758 148.483 248.904 149.138 250.723 150.368C252.542 151.598 253.949 153.345 254.763 155.383C255.012 155.989 255.196 156.62 255.314 157.265C255.373 157.484 255.396 157.712 255.38 157.939Z" fill="#455A64"/>
<path d="M231.407 144.327C232.337 144.523 233.175 145.02 233.793 145.741C234.515 146.359 235.007 147.201 235.192 148.133C235.077 148.182 234.542 147.08 233.489 146.036C232.436 144.992 231.35 144.45 231.407 144.327Z" fill="#263238"/>
<path d="M235.282 144.343C235.406 144.384 235.15 145.255 235.2 146.332C235.249 147.409 235.545 148.248 235.43 148.305C234.968 147.762 234.732 147.061 234.772 146.349C234.674 145.639 234.857 144.92 235.282 144.343Z" fill="#455A64"/>
<path d="M257.033 229.938L259.74 239.12L276.967 231.335C276.35 229.412 273.495 220.847 268.049 207.251C266.558 203.524 264.132 200.243 261.004 197.725C257.875 195.207 254.151 193.536 250.189 192.874C244.758 191.884 239.255 191.334 233.736 191.23C224.077 191.337 209.878 197.37 207.953 206.848C206.489 214.065 207.896 226.814 207.896 242.301L209.154 271.893L258.646 273.537L257.033 229.938Z" fill="#8B7F60"/>
<g opacity="0.3">
<path d="M207.92 235.462C213.942 236.695 220.12 235.462 226.257 235.092C229.976 234.87 234.105 234.467 237.051 236.736C239.387 238.544 240.341 241.594 240.999 244.471C243.566 255.428 244.027 262.777 244.603 274.014L214.814 275.822L207.92 235.462Z" fill="black"/>
</g>
<path d="M266.601 204.415C266.601 204.538 253.603 204.629 237.577 204.629C221.551 204.629 208.562 204.538 208.562 204.415C208.562 204.292 221.551 204.201 237.577 204.201C253.603 204.201 266.601 204.3 266.601 204.415Z" fill="#FAFAFA"/>
<path d="M270.213 212.725C270.213 212.84 256.079 212.939 238.664 212.939C221.248 212.939 207.114 212.84 207.114 212.725C207.114 212.61 221.231 212.511 238.664 212.511C256.096 212.511 270.213 212.61 270.213 212.725Z" fill="#FAFAFA"/>
<path d="M274.77 223.148C274.77 223.272 259.699 223.362 241.107 223.362C222.515 223.362 207.443 223.272 207.443 223.148C207.443 223.025 222.515 222.935 241.107 222.935C259.699 222.935 274.77 223.033 274.77 223.148Z" fill="#FAFAFA"/>
<path d="M256.671 234.393C256.671 234.508 251.957 234.607 246.158 234.607C240.358 234.607 235.636 234.508 235.636 234.393C235.636 234.278 240.341 234.179 246.158 234.179C251.974 234.179 256.671 234.27 256.671 234.393Z" fill="#FAFAFA"/>
<path d="M257.634 246.6C257.634 246.715 252.698 246.773 246.626 246.723C240.555 246.674 235.619 246.542 235.619 246.419C235.619 246.296 240.555 246.246 246.626 246.296C252.698 246.345 257.634 246.46 257.634 246.6Z" fill="#FAFAFA"/>
<path d="M258.111 256.505C257.826 256.557 257.536 256.57 257.247 256.546L254.886 256.497C252.895 256.456 250.147 256.398 247.112 256.398C244.076 256.398 241.353 256.447 239.338 256.488L236.977 256.538C236.687 256.575 236.394 256.575 236.104 256.538C236.385 256.456 236.676 256.412 236.968 256.406C237.519 256.349 238.326 256.291 239.321 256.234C241.312 256.11 244.068 256.012 247.112 256.012C250.156 256.012 252.912 256.119 254.894 256.242C255.89 256.299 256.696 256.365 257.255 256.423C257.543 256.416 257.83 256.443 258.111 256.505Z" fill="#FAFAFA"/>
<path d="M257.955 264.528C257.955 264.643 253.101 264.741 247.112 264.741C241.123 264.741 236.277 264.643 236.277 264.528C236.277 264.413 241.123 264.314 247.112 264.314C253.101 264.314 257.955 264.404 257.955 264.528Z" fill="#FAFAFA"/>
<path d="M259.428 196.269C259.428 196.392 249.901 196.483 238.153 196.483C226.406 196.483 216.871 196.392 216.871 196.269C216.871 196.146 226.398 196.055 238.153 196.055C249.909 196.055 259.428 196.154 259.428 196.269Z" fill="#FAFAFA"/>
<path d="M258.317 197.814C258.317 197.864 257.823 197.888 257 198.209C255.859 198.709 254.873 199.507 254.146 200.519C253.096 202.038 252.505 203.827 252.443 205.673C252.38 207.943 252.557 210.213 252.969 212.446C253.661 216.536 254.584 220.584 255.733 224.57C256.137 226.058 256.474 227.283 256.729 228.212C256.867 228.653 256.975 229.104 257.05 229.56C256.852 229.142 256.693 228.707 256.573 228.261C256.293 227.439 255.898 226.182 255.437 224.653C254.213 220.673 253.251 216.617 252.558 212.512C252.145 210.246 251.98 207.941 252.064 205.64C252.15 203.728 252.797 201.885 253.924 200.338C254.694 199.3 255.748 198.507 256.959 198.053C257.288 197.941 257.627 197.864 257.971 197.823C258.085 197.803 258.202 197.8 258.317 197.814Z" fill="#263238"/>
<path d="M276.416 228.984C275.649 229.519 274.837 229.987 273.989 230.382C272.459 231.204 270.312 232.231 267.909 233.316C265.507 234.401 263.302 235.306 261.69 235.922C260.833 236.292 259.947 236.592 259.041 236.818C259.855 236.364 260.702 235.971 261.575 235.643C263.154 234.952 265.343 233.999 267.737 232.93C270.131 231.861 272.286 230.834 273.849 230.111C274.678 229.677 275.536 229.301 276.416 228.984Z" fill="#263238"/>
<path d="M224.431 272.378L283.564 274.466C288.178 274.631 292.544 276.596 295.724 279.94C298.905 283.284 300.647 287.74 300.577 292.353L298.109 376.739L275.264 375.983L276.967 296.972L224.423 295.591L224.431 272.378Z" fill="#263238"/>
<path d="M199.998 272.378L259.14 274.466C263.753 274.631 268.119 276.596 271.299 279.94C274.48 283.284 276.222 287.74 276.152 292.353L273.684 376.739L250.534 374.906L252.558 296.972L200.015 295.591L199.998 272.378Z" fill="#263238"/>
<path d="M244.258 303.03H238.441V372.662H244.258V303.03Z" fill="#455A64"/>
<path d="M189.633 235.445V286.705C189.633 289.934 190.916 293.03 193.201 295.313C195.486 297.596 198.585 298.879 201.817 298.879H235.982V235.445C235.982 234.733 235.841 234.027 235.569 233.369C235.296 232.711 234.896 232.113 234.392 231.609C233.887 231.105 233.289 230.706 232.63 230.433C231.971 230.16 231.265 230.02 230.552 230.02H195.062C194.349 230.02 193.643 230.16 192.985 230.433C192.326 230.706 191.727 231.105 191.223 231.609C190.719 232.113 190.319 232.711 190.046 233.369C189.773 234.027 189.633 234.733 189.633 235.445Z" fill="#455A64"/>
<path d="M281.952 303.03H198.764C198.764 300.632 199.717 298.332 201.414 296.637C203.111 294.941 205.413 293.988 207.813 293.988H272.944C275.344 293.988 277.645 294.941 279.342 296.637C281.039 298.332 281.993 300.632 281.993 303.03H281.952Z" fill="#455A64"/>
<path d="M235.981 292.813C235.992 292.944 235.992 293.076 235.981 293.207C235.975 293.584 235.928 293.959 235.841 294.325C235.567 295.486 234.96 296.542 234.096 297.363C233.231 298.185 232.145 298.738 230.971 298.953C229.878 299.07 228.779 299.111 227.68 299.076H220.202C214.896 299.076 210.092 299.076 206.62 299.027L202.507 298.97L201.388 298.928C201.255 298.927 201.123 298.913 200.993 298.887C201.121 298.851 201.255 298.834 201.388 298.838L202.507 298.797L206.62 298.723C210.092 298.682 214.896 298.657 220.202 298.649H227.672C228.75 298.692 229.83 298.668 230.905 298.575C231.816 298.42 232.678 298.054 233.423 297.506C234.522 296.696 235.314 295.537 235.669 294.218C235.956 293.355 235.932 292.813 235.981 292.813Z" fill="#263238"/>
<path d="M246.454 303.211C244.761 303.427 243.052 303.499 241.346 303.425C239.642 303.499 237.936 303.427 236.245 303.211C237.937 303 239.642 302.928 241.346 302.997C243.052 302.928 244.76 303 246.454 303.211Z" fill="#263238"/>
<path d="M271.759 299.323C271.515 298.518 271.344 297.693 271.249 296.857C270.969 295.279 270.599 292.985 270.155 290.158C269.711 287.33 269.406 283.902 267.843 280.507C267.024 278.742 265.988 277.085 264.758 275.575C263.414 273.974 261.852 272.569 260.118 271.4C258.391 270.217 256.494 269.305 254.491 268.695C252.627 268.101 250.689 267.766 248.733 267.701C244.973 267.619 241.534 267.635 238.671 267.577C235.809 267.52 233.48 267.495 231.876 267.446C231.05 267.465 230.224 267.407 229.408 267.273C230.224 267.145 231.05 267.09 231.876 267.109C233.48 267.06 235.8 267.01 238.671 266.977C241.543 266.944 244.94 266.87 248.757 266.92C252.976 267.019 257.077 268.329 260.571 270.693C262.375 271.902 263.993 273.367 265.375 275.041C266.647 276.614 267.712 278.343 268.542 280.187C268.732 280.623 268.888 281.075 269.061 281.51L269.308 282.168C269.365 282.39 269.431 282.612 269.489 282.834C269.612 283.269 269.735 283.705 269.85 284.132C269.966 284.56 270.007 284.996 270.089 285.415C270.377 287.1 270.533 288.645 270.731 290.076C271.093 292.911 271.381 295.221 271.553 296.808C271.698 297.638 271.767 298.48 271.759 299.323Z" fill="#455A64"/>
<path d="M266.79 378.942H265.967C266.027 375.657 265.431 372.392 264.214 369.339C262.998 366.286 261.184 363.506 258.88 361.162C256.576 358.817 253.827 356.955 250.794 355.683C247.762 354.412 244.506 353.757 241.217 353.757C237.929 353.757 234.673 354.412 231.64 355.683C228.608 356.955 225.859 358.817 223.555 361.162C221.251 363.506 219.437 366.286 218.22 369.339C217.003 372.392 216.407 375.657 216.467 378.942H215.645C215.584 375.548 216.2 372.176 217.458 369.022C218.716 365.869 220.59 362.997 222.97 360.576C225.351 358.154 228.191 356.23 231.324 354.917C234.457 353.604 237.82 352.928 241.217 352.928C244.615 352.928 247.978 353.604 251.111 354.917C254.244 356.23 257.084 358.154 259.464 360.576C261.845 362.997 263.719 365.869 264.977 369.022C266.234 372.176 266.851 375.548 266.79 378.942Z" fill="#455A64"/>
<path d="M219.89 380.241C219.89 380.998 219.665 381.739 219.244 382.369C218.823 382.999 218.224 383.49 217.523 383.78C216.823 384.07 216.052 384.145 215.308 383.998C214.565 383.85 213.882 383.485 213.345 382.949C212.809 382.414 212.444 381.731 212.296 380.988C212.148 380.245 212.224 379.475 212.514 378.775C212.805 378.075 213.296 377.477 213.926 377.056C214.557 376.635 215.298 376.41 216.056 376.41C216.56 376.409 217.059 376.507 217.525 376.7C217.99 376.892 218.413 377.174 218.77 377.53C219.126 377.886 219.408 378.308 219.6 378.774C219.793 379.239 219.891 379.737 219.89 380.241Z" fill="#263238"/>
<path d="M270.402 379.715C270.402 380.472 270.177 381.213 269.756 381.843C269.334 382.473 268.736 382.964 268.035 383.253C267.335 383.543 266.564 383.619 265.82 383.471C265.076 383.324 264.393 382.959 263.857 382.423C263.321 381.887 262.956 381.205 262.808 380.462C262.66 379.719 262.736 378.949 263.026 378.249C263.316 377.549 263.808 376.95 264.438 376.53C265.069 376.109 265.81 375.884 266.568 375.884C267.585 375.884 268.56 376.288 269.279 377.006C269.998 377.724 270.402 378.699 270.402 379.715Z" fill="#263238"/>
<path d="M266.543 372.662C266.543 372.785 255.413 372.884 241.691 372.884C227.969 372.884 216.838 372.785 216.838 372.662C216.838 372.538 227.96 372.448 241.691 372.448C255.421 372.448 266.543 372.547 266.543 372.662Z" fill="#455A64"/>
<path d="M181.645 212.709C182.251 213.092 182.775 213.593 183.185 214.181C183.595 214.77 183.882 215.435 184.03 216.137C184.312 217.55 184.267 219.009 183.899 220.403C183.274 223.099 181.431 225.68 179.456 227.669C177.391 225.392 177.268 221.825 177.317 220.008C177.4 217.139 179.3 212.002 181.645 212.709Z" fill="#8B7F60"/>
<path d="M181.612 232.503C181.55 231.705 181.699 230.906 182.044 230.184C182.389 229.463 182.918 228.845 183.578 228.393C184.249 227.951 185.001 227.646 185.79 227.496C186.58 227.347 187.391 227.355 188.177 227.521C188.546 227.56 188.902 227.679 189.22 227.869C189.538 228.059 189.811 228.316 190.02 228.623C190.165 228.938 190.223 229.287 190.189 229.632C190.154 229.977 190.027 230.307 189.822 230.587C189.398 231.147 188.829 231.582 188.177 231.845C186.03 232.864 183.768 233.489 181.596 232.519" fill="#8B7F60"/>
<path d="M178.141 238.52C178.255 237.917 178.431 237.327 178.667 236.761C178.897 236.131 179.204 235.532 179.58 234.977C180.011 234.284 180.489 233.622 181.012 232.996C181.974 231.843 183.206 230.945 184.599 230.382C185.022 230.226 185.46 230.113 185.907 230.045C186.07 230.018 186.237 230.018 186.4 230.045C186.4 230.102 185.709 230.176 184.681 230.612C183.356 231.217 182.184 232.11 181.25 233.226C180.734 233.84 180.256 234.485 179.819 235.158C179.442 235.693 179.122 236.266 178.865 236.867C178.663 237.435 178.421 237.987 178.141 238.52Z" fill="#263238"/>
<path d="M180.542 216.745C180.573 217.054 180.573 217.365 180.542 217.674C180.542 218.266 180.46 219.129 180.386 220.189C180.23 222.318 179.975 225.253 179.629 228.491C179.284 231.73 178.872 234.64 178.535 236.711C178.362 237.763 178.222 238.61 178.107 239.177C178.065 239.484 177.996 239.787 177.902 240.081C177.899 239.77 177.926 239.459 177.984 239.153C178.074 238.511 178.181 237.665 178.313 236.687C178.593 234.574 178.963 231.656 179.317 228.417C179.67 225.179 179.942 222.31 180.139 220.14C180.246 219.12 180.337 218.274 180.402 217.624C180.428 217.328 180.474 217.034 180.542 216.745Z" fill="#263238"/>
<path d="M178.009 233.152C177.691 231.489 176.983 229.924 175.941 228.588C174.9 227.252 173.556 226.182 172.02 225.466C171.197 225.113 170.218 224.891 169.593 225.466C168.967 226.042 169.132 227.11 169.461 227.891C170.178 229.54 171.368 230.939 172.881 231.912C174.393 232.885 176.161 233.388 177.959 233.358" fill="#8B7F60"/>
<path d="M172.62 227.916C172.776 227.964 172.923 228.036 173.056 228.129C174.719 229.084 176.167 230.371 177.309 231.911C177.759 232.592 178.095 233.341 178.305 234.13C178.467 234.775 178.542 235.438 178.527 236.103C178.515 236.548 178.463 236.991 178.371 237.426C178.349 237.591 178.305 237.751 178.239 237.903C178.173 237.903 178.321 237.204 178.305 236.103C178.289 235.462 178.198 234.824 178.033 234.204C177.813 233.452 177.48 232.737 177.046 232.083C176.215 230.908 175.201 229.873 174.043 229.017C173.547 228.68 173.071 228.312 172.62 227.916Z" fill="#263238"/>
<path d="M177.737 259.226C175.009 259.224 172.394 258.139 170.466 256.211C168.537 254.283 167.454 251.669 167.454 248.943V238.668H188.021V248.943C188.021 251.669 186.938 254.283 185.009 256.211C183.081 258.139 180.466 259.224 177.737 259.226Z" fill="#263238"/>
<path d="M188.029 243.723C187.946 243.828 187.852 243.925 187.749 244.011L186.927 244.775L183.792 247.422L183.718 247.479L183.628 247.43L177.696 243.871H177.869L172.283 247.422L172.201 247.479L172.119 247.414L168.705 244.742L167.767 243.986C167.651 243.901 167.546 243.801 167.454 243.69C167.588 243.745 167.713 243.82 167.824 243.912C168.088 244.101 168.417 244.339 168.811 244.611L172.291 247.192H172.127L177.647 243.558L177.737 243.501L177.828 243.55L183.759 247.184H183.595L186.779 244.611L187.675 243.904C187.906 243.789 188.021 243.706 188.029 243.723Z" fill="#E0E0E0"/>
<path d="M188.029 241.668C187.946 241.773 187.853 241.87 187.75 241.956L186.927 242.72L183.825 245.392L183.751 245.449L183.661 245.4L177.697 241.816H177.869L172.316 245.408L172.234 245.466L172.152 245.4L168.738 242.728L167.8 241.972C167.684 241.887 167.579 241.787 167.487 241.676C167.621 241.731 167.746 241.806 167.858 241.898L168.845 242.597L172.325 245.178H172.16L177.68 241.545L177.771 241.487L177.861 241.536L183.793 245.17H183.628L186.812 242.597L187.708 241.89C187.906 241.734 188.021 241.668 188.029 241.668Z" fill="#E0E0E0"/>
<path d="M188.029 245.778C188.029 245.778 187.938 245.893 187.749 246.074L186.926 246.83L183.825 249.502L183.751 249.567L183.66 249.51L177.696 245.967H177.869L172.316 249.559L172.234 249.617L172.151 249.559C170.777 248.474 169.617 247.57 168.737 246.888L167.799 246.123C167.585 245.942 167.479 245.844 167.487 245.827C167.619 245.886 167.743 245.961 167.857 246.049C168.12 246.246 168.449 246.477 168.844 246.756L172.324 249.329H172.16L177.68 245.696L177.77 245.638L177.861 245.696L183.792 249.321H183.627L186.811 246.74L187.708 246.041C187.803 245.94 187.911 245.851 188.029 245.778Z" fill="#E0E0E0"/>
<path d="M454.573 283.36C450.312 284.05 448.403 289.278 448.815 293.577C449.226 297.876 450.962 302.085 450.46 306.368C449.859 311.817 445.738 316.421 445.261 321.879C444.693 328.315 449.251 334.028 450.608 340.341C451.274 343.415 451.184 346.67 452.327 349.597C453.303 352.089 455.114 354.166 457.452 355.474C459.789 356.781 462.508 357.238 465.144 356.767C467.781 356.296 470.173 354.925 471.911 352.889C473.65 350.853 474.628 348.278 474.679 345.602C474.77 340.67 471.718 336.009 472.088 331.077C472.359 327.435 474.498 323.983 474.046 320.391C473.494 316.075 469.496 312.993 468.081 308.883C466.666 304.773 468.032 300.235 467.538 295.912C466.666 288.16 462.364 282.76 454.581 283.376" fill="#8B7F60"/>
<path d="M432.805 320.901C432.073 328.085 435.273 336.519 438.951 342.741C442.693 348.991 448.333 353.886 455.05 356.715C455.799 357.028 456.737 357.291 457.37 356.781C457.596 356.535 457.765 356.243 457.866 355.925C457.967 355.607 457.997 355.271 457.954 354.94C458.009 347.314 455.588 339.876 451.053 333.742C446.519 327.607 440.116 323.107 432.805 320.917" fill="#8B7F60"/>
<g opacity="0.2">
<path d="M432.805 320.901C432.073 328.085 435.273 336.519 438.951 342.741C442.693 348.991 448.333 353.886 455.05 356.715C455.799 357.028 456.737 357.291 457.37 356.781C457.596 356.535 457.765 356.243 457.866 355.925C457.967 355.607 457.997 355.271 457.954 354.94C458.009 347.314 455.588 339.876 451.053 333.742C446.519 327.607 440.116 323.107 432.805 320.917" fill="black"/>
</g>
<path d="M464.124 371.717C464.038 371.595 463.969 371.462 463.918 371.322L463.4 370.138C462.972 369.119 462.322 367.672 461.5 365.823C459.358 361.105 456.977 356.498 454.367 352.021C451.74 347.55 448.89 343.212 445.828 339.026C444.652 337.423 443.681 336.132 442.998 335.253C442.685 334.842 442.422 334.496 442.225 334.225C442.128 334.111 442.042 333.987 441.97 333.855C441.97 333.855 442.093 333.954 442.282 334.176L443.105 335.154C443.829 335.976 444.833 337.267 446.042 338.853C452.339 347.144 457.617 356.16 461.763 365.708C462.586 367.541 463.162 369.037 463.548 370.081L463.993 371.289C464.049 371.427 464.093 371.57 464.124 371.717Z" fill="#263238"/>
<path d="M459.492 303.236C459.538 303.463 459.566 303.694 459.575 303.926C459.575 304.411 459.657 305.069 459.714 305.907C459.83 307.658 459.986 310.141 460.183 313.182C460.57 319.331 461.113 327.822 461.779 337.193C462.446 346.563 463.087 355.055 463.564 361.195C463.795 364.236 463.984 366.711 464.124 368.47C464.181 369.292 464.223 369.958 464.255 370.443C464.275 370.675 464.275 370.909 464.255 371.141C464.255 371.141 464.214 370.903 464.157 370.451C464.099 369.999 464.033 369.308 463.943 368.478C463.778 366.727 463.548 364.253 463.26 361.22C462.709 355.079 462.01 346.605 461.351 337.226C460.693 327.847 460.208 319.355 459.871 313.182C459.731 310.132 459.616 307.658 459.533 305.899C459.533 305.077 459.484 304.403 459.468 303.91C459.455 303.685 459.463 303.459 459.492 303.236Z" fill="#263238"/>
<path d="M452.878 361.474H470.886V374.684C470.884 376.974 469.972 379.169 468.351 380.787C466.73 382.406 464.532 383.315 462.24 383.315C460.028 383.316 457.9 382.469 456.294 380.949C454.689 379.429 453.728 377.351 453.61 375.144L452.878 361.474Z" fill="#263238"/>
<path d="M361.677 187.325L404.621 211.089L403.008 214.114L360.443 189.907L361.677 187.325Z" fill="#8B7F60"/>
<path d="M359.562 185.081L361.537 182.065L362.689 182.772L360.92 185.813L359.562 185.081Z" fill="#8B7F60"/>
<path d="M399.742 207.333L401.947 208.599L394.756 254.45L391.351 254.491L399.742 207.333Z" fill="#8B7F60"/>
<path d="M381.454 259.226C381.454 259.226 386.694 253.932 393.704 254.294C395.707 254.367 397.676 254.836 399.497 255.672C401.318 256.509 402.956 257.697 404.316 259.168L381.454 259.226Z" fill="#8B7F60"/>
<path d="M359.604 205.87L342.6 196.055L347.536 187.564C348.18 186.448 349.038 185.47 350.06 184.685C351.083 183.901 352.25 183.326 353.496 182.992C354.741 182.658 356.04 182.573 357.318 182.741C358.596 182.909 359.829 183.328 360.945 183.972C363.199 185.273 364.843 187.415 365.517 189.928C366.192 192.44 365.84 195.117 364.54 197.37L359.604 205.87Z" fill="#8B7F60"/>
</svg>
